<?xml version="1.0" encoding="utf-8"?>
<!-- Generator: Adobe Illustrator 16.0.0, SVG Export Plug-In . SVG Version: 6.00 Build 0)  -->
<!DOCTYPE svg PUBLIC "-//W3C//DTD SVG 1.1//EN" "http://www.w3.org/Graphics/SVG/1.1/DTD/svg11.dtd">
<svg version="1.1" id="图层_1" xmlns="http://www.w3.org/2000/svg" xmlns:xlink="http://www.w3.org/1999/xlink" x="0px" y="0px"
	 width="167px" height="110px" viewBox="0 0 167 110" enable-background="new 0 0 167 110" xml:space="preserve">
<g>
	<defs>
		<rect id="SVGID_1_" x="-206" y="-302.89" width="595.276" height="841.89"/>
	</defs>
	<clipPath id="SVGID_2_">
		<use xlink:href="#SVGID_1_"  overflow="visible"/>
	</clipPath>
	<path clip-path="url(#SVGID_2_)" fill="#F8B62D" d="M76.178,58.11c0,13.807-11.193,25-25,25s-25-11.193-25-25
		c0-13.807,11.193-25,25-25S76.178,44.303,76.178,58.11"/>
	<path clip-path="url(#SVGID_2_)" fill="#1D2088" d="M103.396,60.649c-1.677,26.768-38.537,43.393-40.75,40.75
		c-2.075-2.478,28.676-19.053,28.25-44.5c-0.409-24.411-29.214-39.293-27-42c2.166-2.647,31.336,9.621,38.167,34.589
		C102.693,51.796,103.71,55.637,103.396,60.649"/>
	<rect x="103.455" y="51.11" clip-path="url(#SVGID_2_)" fill="#1D2088" width="42.723" height="13"/>
</g>
</svg>
