<?xml version="1.0" encoding="utf-8"?>
<!-- Generator: Adobe Illustrator 23.1.0, SVG Export Plug-In . SVG Version: 6.00 Build 0)  -->
<svg version="1.1" id="图层_1" xmlns="http://www.w3.org/2000/svg" xmlns:xlink="http://www.w3.org/1999/xlink" x="0px" y="0px"
	 viewBox="0 0 595.3 490" style="enable-background:new 0 0 595.3 490;" xml:space="preserve">
<style type="text/css">
	.st0{fill:none;stroke:#4F6BA9;stroke-width:7;stroke-miterlimit:10;}
	.st1{fill:#1D2088;}
	.st2{fill:none;}
	.st3{font-family:'Arial-ItalicMT';}
	.st4{font-size:60px;}
</style>
<circle class="st0" cx="232.6" cy="223.8" r="192.2"/>
<path class="st1" d="M383.8,346.8l20.8-31.4c0.8-1.2,2.5-1.6,3.8-0.8l0,0L577,426.5c1.2,0.8,1.6,2.5,0.8,3.8l0,0L557,461.6
	c-0.8,1.2-2.5,1.6-3.8,0.8l0,0L384.5,350.6C383.3,349.8,382.9,348.1,383.8,346.8C383.7,346.9,383.8,346.8,383.8,346.8z"/>
<rect x="118" y="185.5" class="st2" width="248" height="138"/>
<text transform="matrix(1 0 0 1 118 236.9271)" class="st1 st3 st4">Disease</text>
<rect x="688" y="121" class="st2" width="17" height="1"/>
</svg>
