<?xml version="1.0" encoding="utf-8"?>
<!-- Generator: Adobe Illustrator 23.1.0, SVG Export Plug-In . SVG Version: 6.00 Build 0)  -->
<svg version="1.1" id="图层_1" xmlns="http://www.w3.org/2000/svg" xmlns:xlink="http://www.w3.org/1999/xlink" x="0px" y="0px"
	 viewBox="0 0 455 312" style="enable-background:new 0 0 455 312;" xml:space="preserve">
<style type="text/css">
	.st0{fill:#FFFFFF;}
	.st1{fill:none;stroke:#4F6BA9;stroke-width:7;stroke-miterlimit:10;}
	.st2{fill:#9BC998;}
	.st3{fill:none;stroke:#4F6BA9;stroke-width:7;stroke-linecap:round;stroke-miterlimit:10;}
	.st4{fill:#96CA76;stroke:#006934;stroke-width:0.75;stroke-miterlimit:10;}
	.st5{fill:#669F4F;stroke:#006934;stroke-width:0.5;stroke-miterlimit:10;}
	.st6{fill:#BBDCA3;stroke:#00913A;stroke-width:0.25;stroke-miterlimit:10;}
	.st7{fill:#669F4F;}
	.st8{fill:#77B65F;stroke:#4D8C27;stroke-width:0.75;stroke-miterlimit:10;}
	.st9{fill:#7EB761;}
	.st10{fill:#439942;stroke:#006934;stroke-width:0.75;stroke-miterlimit:10;}
	.st11{fill:none;stroke:#006934;stroke-width:0.75;stroke-miterlimit:10;}
	.st12{fill:#42944B;stroke:#006934;stroke-width:0.75;stroke-miterlimit:10;}
	.st13{fill:none;stroke:#00913A;stroke-width:2;stroke-miterlimit:10;stroke-dasharray:6.8646,5.8839;}
	.st14{fill:#489A49;stroke:#006934;stroke-width:0.75;stroke-miterlimit:10;}
	.st15{fill:#A49DBD;stroke:#898989;stroke-width:0.5;stroke-miterlimit:10;}
	.st16{fill:#7C73A5;stroke:#595757;stroke-width:0.5;stroke-miterlimit:10;}
	.st17{fill:#493D8F;stroke:#000000;stroke-width:0.5;stroke-miterlimit:10;}
	.st18{fill:#7166A9;stroke:#300048;stroke-width:0.75;stroke-miterlimit:10;}
	.st19{fill:#544F92;stroke:#3E2C5B;stroke-width:0.75;stroke-miterlimit:10;}
	.st20{fill:#5677AF;stroke:#171C61;stroke-width:0.75;stroke-miterlimit:10;}
	.st21{fill:#325C95;stroke:#15266B;stroke-width:0.5;stroke-miterlimit:10;}
	.st22{fill:#5677AD;stroke:#15266B;stroke-width:0.75;stroke-miterlimit:10;}
	.st23{fill:#315B94;stroke:#15266B;stroke-width:0.5;stroke-miterlimit:10;}
	.st24{fill:#315B94;}
	.st25{fill:none;stroke:#601986;stroke-miterlimit:10;}
	.st26{fill:#601986;}
	.st27{fill:none;stroke:#172A88;stroke-miterlimit:10;}
	.st28{fill:#172A88;}
	.st29{fill:none;stroke:#172A88;stroke-width:2;stroke-miterlimit:10;}
	.st30{fill:none;stroke:#172A88;stroke-width:3;stroke-miterlimit:10;}
	.st31{fill:none;stroke:#172A88;stroke-miterlimit:10;stroke-dasharray:1,1;}
	.st32{fill:none;stroke:#172A88;stroke-miterlimit:10;stroke-dasharray:2,2;}
</style>
<g>
	<ellipse class="st0" cx="193.1" cy="144.8" rx="117.9" ry="120.4"/>
	<ellipse class="st1" cx="193.1" cy="139.1" rx="117.9" ry="120.4"/>
	<path class="st2" d="M296.1,215.6l12.8-19.7c0.5-0.8,1.5-1,2.3-0.5l0,0l103.5,70c0.8,0.5,1,1.6,0.5,2.4l0,0l-12.8,19.7
		c-0.5,0.8-1.5,1-2.3,0.5l0,0l-103.5-70C295.8,217.5,295.6,216.5,296.1,215.6C296.1,215.7,296.1,215.7,296.1,215.6z"/>
	<path class="st3" d="M96.8,110.5c6.6-22.2,20.2-41.5,38.8-54.8"/>
	<g>
		<g>
			<path class="st4" d="M193.4,80.4c0,0-1.3,0.7-2.3,1.7c-2.1,2.1-1.1,4.3-2.5,5.1c-1.4,0.8-2.6-1-4.5-0.3c-1.7,0.6-1.7,2.3-3,2.4
				c-1.3,0-1.6-1.9-3.2-2.1c-1.5-0.2-2.2,1.3-3.3,1c-1.2-0.4-0.8-2.4-2-2.9c-1.1-0.4-1.9,1-3.5,0.6c-1.2-0.3-2-1.3-2.2-1.6
				c-1.1-1.5-0.2-2.7-1.1-3.7c-1-1.1-2.4-0.3-3.1-1.3c-0.7-1,0.7-2,0.3-3.9c-0.4-2-2.1-2.1-2.3-3.8c-0.2-1.7,1.6-2.1,1.7-4.3
				c0.1-1.7-1-1.9-0.8-3.4c0.3-2.4,3.1-4,3.5-4.2c1-0.6,1.1-0.4,1.6-0.8c1.3-1.3,0.6-2.9,1.9-4.1c0.6-0.5,0.8-0.2,2.2-0.8
				c2.2-1,2.2-2,3.8-2.5c1.4-0.4,1.7,0.4,4.2,0.6c2.8,0.1,3.2-0.9,4.9-0.4c2,0.6,1.8,1.9,3.8,2.6c2.1,0.7,3.2-0.4,4.3,0.4
				c0.9,0.7,0.4,1.6,1.2,3.6c0.9,2.2,1.8,1.9,2.9,4c1.3,2.7,0,4.1,1.5,6.3c1.1,1.6,2.2,1.4,2.3,2.5c0.2,2-4.1,3.4-3.9,5.9
				c0.1,0.8,0.6,1.2,0.3,1.9C195.6,79.6,194.7,79.6,193.4,80.4z"/>
			<path class="st5" d="M186.1,78.1c-2.3,3.1-7.2,3.9-10.6,1.7c-4.1-2.6-5.1-8.6-2.2-12.1c2.1-2.5,5.8-3.3,8.7-2.3
				C186.7,67.2,189.2,74,186.1,78.1z"/>
			<g>
				<path class="st6" d="M189.7,62.7"/>
				<path class="st6" d="M184.2,58.7"/>
				<circle class="st6" cx="188.7" cy="60.4" r="1.3"/>
				<circle class="st6" cx="191.2" cy="69.2" r="1.6"/>
				<circle class="st6" cx="189.4" cy="78.6" r="1.2"/>
				<circle class="st6" cx="173.4" cy="57.4" r="1.5"/>
				<circle class="st6" cx="165.8" cy="67" r="1.5"/>
				<circle class="st6" cx="176.4" cy="83.9" r="1.2"/>
				<circle class="st6" cx="172.8" cy="66" r="0.7"/>
				<circle class="st6" cx="187" cy="67.1" r="0.8"/>
			</g>
			<g>
				<circle class="st7" cx="176.9" cy="56.7" r="0.3"/>
				<circle class="st7" cx="179.2" cy="61.3" r="0.6"/>
				<circle class="st7" cx="185.3" cy="62.2" r="0.4"/>
				<circle class="st7" cx="191.3" cy="74.7" r="0.5"/>
				<circle class="st7" cx="192.4" cy="79.3" r="0.5"/>
				<circle class="st7" cx="186" cy="83.7" r="0.5"/>
				<circle class="st7" cx="178.9" cy="87.2" r="0.6"/>
				<circle class="st7" cx="167.9" cy="78.7" r="0.5"/>
				<circle class="st7" cx="171.8" cy="80.9" r="0.4"/>
				<circle class="st7" cx="166.1" cy="64.2" r="0.4"/>
				<circle class="st7" cx="173.9" cy="63.4" r="0.6"/>
				<circle class="st7" cx="169.1" cy="59.3" r="0.6"/>
				<circle class="st7" cx="169.9" cy="71.8" r="0.2"/>
				<circle class="st7" cx="188.4" cy="66.1" r="0.5"/>
			</g>
		</g>
		<g>
			<path class="st4" d="M244.6,94.3c0,1.4,1.5,2.1,1.1,2.9c-0.3,0.7-1.5,0.2-3.1,1c-1.3,0.7-1.1,1.3-2.4,2.1
				c-1.9,1.2-2.8,0.3-3.9,1.4c-1.3,1.2-0.8,3-1.8,3.4c-0.7,0.2-1-0.6-2.7-1.1c-1.4-0.4-1.5,0-2.8-0.4c-1.5-0.5-1.4-1.1-2.7-1.3
				c-1.4-0.3-1.8,0.5-2.9,0.1c-1.3-0.4-1.1-1.5-2.4-2c-1.7-0.7-2.9,0.7-3.8,0c-1.1-0.9,0.3-3.3-0.8-4.4c-1.1-1-3.2,0.2-3.6-0.6
				c-0.3-0.5,0.8-1,0.9-2.3c0.1-1-0.5-1.1-1.1-3.4c-0.3-1.2-0.3-1.6-0.7-1.9c-0.6-0.5-1.3-0.1-2-0.6c-0.4-0.3-0.8-1-0.7-1.5
				c0.3-0.8,1.8-0.3,2.8-1.3c0.9-0.9,0.1-1.8,0.8-3.9c0.7-2,1.9-2.1,2.6-4.3c0.3-1.1,0.1-1.1,0.4-2c0.7-1.7,1.7-1.7,2.5-3.2
				c0.9-1.8,0.2-3.1,1.1-3.6c0.8-0.5,1.4,0.5,2.8,0.3s1.5-1.3,3.1-1.6c1.2-0.2,1.3,0.3,2.5,0.1c2.1-0.3,3.3-2.3,3.8-2
				c0.3,0.2-0.2,0.9,0,1.6c0.4,1,1.8,0.7,3.7,1.5c2.7,1.1,2.7,2.7,4.9,3c0.9,0.1,1.6-0.1,2.1,0.4c0.6,0.6,0.2,1.3,0.6,2.3
				c0.7,1.5,2,1.2,3,2.9c0.5,0.9,0.2,1.1,0.7,1.8c1.1,1.4,2.9,1.1,3.1,1.9c0.1,0.6-1,0.8-1.4,2.1c-0.4,1.3,0.6,1.9,0.1,3
				c-0.4,1-1.2,0.9-1.4,1.7c-0.2,1.1,1.4,1.6,1.5,2.8C248.6,91.2,244.6,92.1,244.6,94.3z"/>
			<path class="st8" d="M234.8,95.3c-0.7,0.4-1-0.1-2.8-0.2c-2.4-0.2-2.8,0.5-3.7-0.1c-1-0.6-0.8-1.6-2-2.2
				c-0.6-0.3-0.8-0.1-1.5-0.4c-0.1,0-1.6-0.7-2.1-2.1c-0.3-0.9,0.2-1.2,0.4-3.4c0.2-1.7-0.1-2,0.3-2.8c0.2-0.6,0.5-0.8,1.7-2.2
				c2.2-2.5,2.1-2.7,2.8-3c0.1-0.1,1.8-0.9,3.6-0.3c1.2,0.4,1.1,1,2.6,1.9c1.9,1,2.5,0.4,3.3,1.3s0.3,1.6,1.4,3.3
				c0.6,0.9,0.8,0.8,1,1.4c0.7,1.9-1.1,4.2-1.2,4.4c-0.8,1-1.1,0.7-1.9,1.8C235.5,94.1,235.7,94.9,234.8,95.3z"/>
			<circle class="st9" cx="235.9" cy="74" r="0.4"/>
			<circle class="st9" cx="243.8" cy="77.1" r="0.3"/>
			<circle class="st9" cx="228.1" cy="72.5" r="0.5"/>
			<circle class="st9" cx="229.8" cy="75.9" r="0.4"/>
			<circle class="st9" cx="223.5" cy="75.3" r="0.5"/>
			<circle class="st9" cx="223.8" cy="69.4" r="0.5"/>
			<circle class="st9" cx="217.9" cy="76.2" r="0.6"/>
			<circle class="st9" cx="217.3" cy="82.3" r="0.3"/>
			<circle class="st9" cx="223.7" cy="80.4" r="0.5"/>
			<circle class="st9" cx="221.3" cy="86.7" r="0.5"/>
			<circle class="st9" cx="214" cy="83.9" r="0.5"/>
			<circle class="st9" cx="214.7" cy="87.2" r="0.4"/>
			<circle class="st9" cx="219.2" cy="90.5" r="0.4"/>
			<circle class="st9" cx="219.5" cy="94.3" r="0.3"/>
			<circle class="st9" cx="224.7" cy="95.2" r="0.6"/>
			<circle class="st9" cx="227.8" cy="98.8" r="0.6"/>
			<circle class="st9" cx="233" cy="96.4" r="0.5"/>
			<circle class="st9" cx="240.1" cy="92.6" r="0.4"/>
			<circle class="st9" cx="241.4" cy="88.2" r="0.4"/>
			<circle class="st9" cx="241.4" cy="82.7" r="0.5"/>
		</g>
		<g>
			<path class="st10" d="M209.8,72.8c-0.5,1.9-3.1,2.7-3.9,2.1c-0.4-0.3-0.5-0.9-0.2-1.2c0.3-0.3,0.8,0.2,1.6-0.1
				c0.2,0,0.8-0.2,1.1-0.8c0.4-0.6,0.2-1.2,0.2-1.2c0-0.1-0.1-0.6-0.6-1c-0.4-0.3-0.7-0.2-1-0.6c0-0.1-0.1-0.2-0.1-0.5
				s0.2-0.5,0.3-0.6c0.5-0.2,1.3,0.5,1.4,0.6C208.7,69.7,210.2,71.1,209.8,72.8z"/>
			<line class="st11" x1="199.3" y1="70.9" x2="205.1" y2="71.8"/>
			<circle class="st12" cx="206.9" cy="72.1" r="1.7"/>
			<path class="st11" d="M209.8,72.6c2,0.5,4,0.9,6,1.4"/>
		</g>
		<g>
			<path class="st10" d="M200.6,80.2c0.5-1.9,3.1-2.7,3.9-2.1c0.4,0.3,0.5,0.9,0.2,1.2c-0.3,0.3-0.8-0.2-1.6,0.1
				c-0.2,0-0.8,0.2-1.1,0.8c-0.4,0.6-0.2,1.2-0.2,1.2c0,0.1,0.1,0.6,0.6,1c0.4,0.3,0.7,0.2,1,0.6c0,0.1,0.1,0.2,0.1,0.5
				s-0.2,0.5-0.3,0.6c-0.5,0.2-1.3-0.5-1.4-0.6C201.6,83.3,200.1,81.9,200.6,80.2z"/>
			<path class="st11" d="M212.4,82.6c-2.4-0.5-4.8-0.9-7.2-1.4"/>
			<circle class="st12" cx="203.4" cy="80.9" r="1.7"/>
			<path class="st11" d="M200.5,80.5c-1.6-0.4-3.3-0.8-4.9-1.2"/>
		</g>
		<g>
			<path class="st13" d="M257.7,93.5c-5.2,18.5-34,26.6-64.5,18c-72.6-22.3-54.8-85.7,18.8-67C242.5,53,262.9,75,257.7,93.5
				L257.7,93.5z"/>
		</g>
		<path class="st11" d="M235.1,103.8c1.5,3.7,3,7.3,4.5,11"/>
		<path class="st14" d="M243.6,117.7c0.2-0.3,0-0.6,0-0.8c-0.2-0.6-1.9-2.6-4-1.9c-1.7,0.7-2.1,2.9-1.8,3.9c0.1,0.2,0.3,0.7,0.7,0.8
			c0.2,0,0.5-0.1,0.7-0.3c0.4-0.5-0.1-1,0.1-1.9c0.1-0.5,0.5-1.2,1.1-1.3c0.7-0.1,1.4,0.6,1.7,0.8c0.5,0.5,0.6,0.9,1,0.9
			C243.2,118,243.5,117.9,243.6,117.7z"/>
		<circle class="st15" cx="241.2" cy="119.4" r="1.4"/>
		<circle class="st15" cx="247.5" cy="134.4" r="1.4"/>
		<circle class="st15" cx="238.7" cy="140.5" r="1.4"/>
		<circle class="st15" cx="233.5" cy="123.7" r="1.4"/>
		<circle class="st15" cx="250.6" cy="126" r="1.4"/>
		<circle class="st15" cx="252.1" cy="135.5" r="1.4"/>
		<circle class="st16" cx="245.6" cy="122.6" r="1.4"/>
		<circle class="st16" cx="244.7" cy="141.6" r="1.4"/>
		<circle class="st16" cx="235.4" cy="134.9" r="1.4"/>
		<circle class="st16" cx="233.6" cy="130.2" r="1.4"/>
		<circle class="st16" cx="240.8" cy="126" r="1.4"/>
		<circle class="st17" cx="239.5" cy="129.9" r="1.4"/>
		<circle class="st17" cx="241.8" cy="134.2" r="1.4"/>
		<circle class="st17" cx="245.5" cy="129.4" r="1.4"/>
		<ellipse transform="matrix(0.5864 -0.81 0.81 0.5864 3.724 244.8414)" class="st0" cx="241.6" cy="118.8" rx="0.2" ry="0.3"/>
		<ellipse transform="matrix(0.5864 -0.81 0.81 0.5864 -14.3734 251.6368)" class="st0" cx="239.2" cy="139.9" rx="0.2" ry="0.3"/>
		<ellipse transform="matrix(0.5864 -0.81 0.81 0.5864 -11.2484 246.6419)" class="st0" cx="235.9" cy="134.3" rx="0.2" ry="0.3"/>
		<ellipse transform="matrix(0.5864 -0.81 0.81 0.5864 -8.1877 243.2339)" class="st0" cx="234.1" cy="129.6" rx="0.2" ry="0.3"/>
		<ellipse transform="matrix(0.5864 -0.81 0.81 0.5864 -1.7629 247.3317)" class="st0" cx="241.3" cy="125.4" rx="0.2" ry="0.3"/>
		<ellipse transform="matrix(0.5864 -0.81 0.81 0.5864 -3.011 240.3758)" class="st0" cx="233.9" cy="123.1" rx="0.2" ry="0.3"/>
		<ellipse transform="matrix(0.5864 -0.81 0.81 0.5864 2.9442 249.8157)" class="st0" cx="246.1" cy="122" rx="0.2" ry="0.3"/>
		<ellipse transform="matrix(0.5864 -0.81 0.81 0.5864 -5.5271 247.7642)" class="st0" cx="239.9" cy="129.3" rx="0.2" ry="0.3"/>
		<ellipse transform="matrix(0.5864 -0.81 0.81 0.5864 -8.0629 251.41)" class="st0" cx="242.2" cy="133.6" rx="0.2" ry="0.3"/>
		<ellipse transform="matrix(0.5864 -0.81 0.81 0.5864 -5.7839 256.0552)" class="st0" cx="247.8" cy="133.7" rx="0.2" ry="0.3"/>
		<ellipse transform="matrix(0.5864 -0.81 0.81 0.5864 2.2943 255.1565)" class="st0" cx="251" cy="125.3" rx="0.2" ry="0.3"/>
		<ellipse transform="matrix(0.5864 -0.81 0.81 0.5864 -2.5715 252.5444)" class="st0" cx="246" cy="128.8" rx="0.2" ry="0.3"/>
		<ellipse transform="matrix(0.5864 -0.81 0.81 0.5864 -4.7033 260.3228)" class="st0" cx="252.6" cy="134.8" rx="0.2" ry="0.3"/>
		<ellipse transform="matrix(0.5864 -0.81 0.81 0.5864 -12.8058 256.8598)" class="st0" cx="245.1" cy="141" rx="0.2" ry="0.3"/>
		<g>
			<path class="st18" d="M273.7,174.2c-5.4,7.6-16.7,10.2-24.5,4.3c-7.6-5.7-8.5-16.8-3-24.2s16.7-9.7,24.3-3.9
				C277.8,156.1,278.8,166.9,273.7,174.2z"/>
			<circle class="st19" cx="259" cy="166.8" r="10.1"/>
		</g>
		<g>
			<path class="st20" d="M219.5,219c-2.9,3.3-2.5,3.5-3.5,4.1c-2.1,1.4-3.5,0.5-4.7,2.1c-1.1,1.3-0.8,2.9-1.6,3.1
				c-0.9,0.2-1.5-1.9-2.8-1.8c-1.1,0-1.9,1.6-2,1.8c-0.7,1.2-0.3,2.1-1.1,2.8c-0.1,0.1-0.8,0.6-1.3,0.3c-1.1-0.5,0.6-3.9-1-6
				c-0.6-0.7-1.5-1.3-2.1-1c-0.8,0.3-0.3,2.1-1.6,3c-0.2,0.2-0.6,0.5-1,0.3c-1-0.3-0.3-2.6-1.4-5.2c-0.8-1.9-1.4-1.5-2.8-3.7
				c-1.8-3.1-1-4.8-2.5-5.6c-1.4-0.8-2.9,0.4-4.3-0.7c-0.1-0.1-0.8-0.7-0.7-1.2c0.2-0.7,2.4,0,4.1-1.3c0.3-0.2,1.3-1,1.4-2
				c0.2-1.9-3-2.8-2.8-4.3c0.2-1.3,2.7-1,5.5-3.4c1.9-1.7,1.5-2.6,3.6-4c1.8-1.3,2.5-0.8,4.1-2.1c2.1-1.7,2.7-3.8,3.3-3.6
				s-0.2,2.4,0.9,3.2c1,0.8,3.3,0.3,4.4-1c0.8-0.8,0.7-1.7,1.8-2.4c0.1-0.1,1.2-0.8,1.6-0.4c0.3,0.2,0.2,0.9,0.1,1.3
				c-0.2,1.3-0.9,1.6-0.8,2.2c0.2,0.7,1.2,0.9,1.7,1.1c1.1,0.3,1.6-0.1,2.1,0.3s0.3,1.1,0.6,1.9c0.4,1.4,1.5,1.4,3.3,3
				c2.4,2.1,2.5,3.9,4.1,4c0.6,0,0.9-0.2,1.7,0c0.5,0.1,1.7,0.5,1.8,1.1c0.1,1-3.2,1-4.5,3.3c-0.8,1.4-0.9,3.6,0.2,4.8
				c0.8,0.9,1.9,0.8,2.7,2.2c0.2,0.3,0.6,1.1,0.4,1.5c-0.5,0.7-2.2-0.6-4.1,0C221.8,216.7,221.4,216.9,219.5,219z"/>
			<path class="st21" d="M217.4,207.8c-0.8,2.2-3.2,3-6.7,4.1c-2.7,0.9-5.7,1.9-9.1,0.7c-1.2-0.4-3.9-1.3-5-3.9
				c-1.3-3.2,1.1-6.6,1.6-7.3c2-2.7,4.8-3.7,6-4c0.4-0.1,5.2-1.2,9.2,2C215.6,201,218.6,204.7,217.4,207.8z"/>
		</g>
		<g>
			<path class="st22" d="M154.8,196.6c-5.5,8-17.2,10.7-25.3,4.8c-8.4-6.1-9.1-18.5-2.7-26.2c5.8-6.9,16.7-9.1,24.5-3.3
				C159,177.7,160.1,189,154.8,196.6z"/>
			<path class="st23" d="M147.7,196.4c-4,3.8-10.5,3.9-14.9,1.3c-0.9-0.5-4.7-2.7-5.4-7c-0.1-0.6-0.4-2.9,0.7-5.1
				c2.5-4.9,10.5-6.7,16.3-4.3c1.2,0.5,5.8,2.4,6.6,6.8C151.9,192.5,148.2,195.9,147.7,196.4z"/>
			<circle class="st24" cx="144.9" cy="172.9" r="0.9"/>
			<circle class="st24" cx="138" cy="172" r="0.7"/>
			<circle class="st24" cx="133.6" cy="174.8" r="0.9"/>
			<circle class="st24" cx="130.5" cy="179.6" r="0.9"/>
			<circle class="st24" cx="137.8" cy="177.8" r="0.6"/>
			<circle class="st24" cx="142" cy="176" r="0.9"/>
			<circle class="st24" cx="148.1" cy="177.4" r="0.9"/>
			<circle class="st24" cx="151.7" cy="177.2" r="0.7"/>
			<circle class="st24" cx="148.6" cy="181.2" r="0.6"/>
			<circle class="st24" cx="154.3" cy="181.7" r="0.8"/>
			<circle class="st24" cx="153.3" cy="186.3" r="1.1"/>
			<circle class="st24" cx="145.7" cy="200.6" r="0.6"/>
			<circle class="st24" cx="142" cy="201.9" r="0.7"/>
			<circle class="st24" cx="127" cy="194.3" r="0.9"/>
		</g>
		<g>
			<g>
				<line class="st25" x1="263.7" y1="136.7" x2="256.3" y2="116.3"/>
				<g>
					<polygon class="st26" points="258.9,116.1 255.1,112.9 254.2,117.8 					"/>
				</g>
			</g>
		</g>
		<g>
			<g>
				<path class="st27" d="M160,173.8c8-5.2,23.6-13.7,44.8-15.7c11.2-1,20.8,0.1,28.2,1.5"/>
				<g>
					<polygon class="st28" points="231.8,162 236.5,160.4 232.8,157.1 					"/>
				</g>
			</g>
		</g>
		<g>
			<g>
				<path class="st29" d="M156,170.1c16.2-9.2,37.9-25.2,53.4-51.6c1.5-2.6,2.9-5.2,4.2-7.7"/>
				<g>
					<polygon class="st28" points="217.4,114.2 216.6,104.3 208.4,109.9 					"/>
				</g>
			</g>
		</g>
		<g>
			<g>
				<path class="st30" d="M240.1,170.5c-3.2,1-9.1,3.4-14.5,8.8c-2,1.9-3.5,3.9-4.8,5.8"/>
				<g>
					<polygon class="st28" points="217.7,181.7 217.7,190.7 225.5,186.2 					"/>
				</g>
			</g>
		</g>
		<g>
			<g>
				<path class="st30" d="M185.9,195.8c-6-1.4-12-2.7-18.1-4.1"/>
				<g>
					<polygon class="st28" points="170.1,187.7 161.5,190.4 168.1,196.5 					"/>
				</g>
			</g>
		</g>
		<g>
			<g>
				<line class="st31" x1="161.4" y1="199.5" x2="178.7" y2="203.8"/>
				<g>
					<polygon class="st28" points="177.3,206.1 182.1,204.7 178.6,201.2 					"/>
				</g>
			</g>
		</g>
		<g>
			<g>
				<path class="st32" d="M180.1,92.8c2.7,5.5,5.3,13.3,4.9,22.6c-0.9,24.4-21.6,40-31,45.8"/>
				<g>
					<polygon class="st28" points="153.2,157.7 149.7,163.7 156.7,163.7 					"/>
				</g>
			</g>
		</g>
	</g>
</g>
</svg>
