<?xml version="1.0" encoding="utf-8"?>
<!-- Generator: Adobe Illustrator 23.1.0, SVG Export Plug-In . SVG Version: 6.00 Build 0)  -->
<svg version="1.1" id="图层_1" xmlns="http://www.w3.org/2000/svg" xmlns:xlink="http://www.w3.org/1999/xlink" x="0px" y="0px"
	 viewBox="0 0 595.3 469" style="enable-background:new 0 0 595.3 469;" xml:space="preserve">
<style type="text/css">
	.st0{fill:none;stroke:#4F6BA9;stroke-width:7;stroke-miterlimit:10;}
	.st1{fill:#1D2088;}
	.st2{fill:url(#BASE-2_1_);}
	.st3{fill:url(#DOWN_1-2_1_);}
	.st4{fill:url(#DOWN_2-2_1_);}
	.st5{fill:url(#DOWN_3-2_1_);}
	.st6{opacity:0.7;fill:url(#DOWN_4-2_1_);enable-background:new    ;}
	.st7{fill:url(#LEFT-3_1_);}
	.st8{fill:url(#SHINE_LEFT-2_1_);}
	.st9{fill:url(#RIGHT-3_1_);}
	.st10{opacity:0.65;fill:url(#SHINE_RIGHT-2_1_);enable-background:new    ;}
	.st11{fill:url(#RIGHT_BG_1_);}
	.st12{fill:url(#RIGHT_MID_1_);}
	.st13{fill:url(#LEFT_BG_1_);}
	.st14{fill:url(#LEFT_MID_1_);}
	.st15{fill:url(#RIGHT-2-2_1_);}
	.st16{fill:url(#LEFT-2-2_1_);}
	.st17{opacity:0.7;}
	.st18{fill:url(#SVGID_1_);}
	.st19{fill:url(#SVGID_2_);}
	.st20{fill:url(#SVGID_3_);}
	.st21{fill:url(#SVGID_4_);}
	.st22{fill:url(#SVGID_5_);}
	.st23{fill:url(#SVGID_6_);}
	.st24{fill:url(#SVGID_7_);}
	.st25{fill:url(#SVGID_8_);}
	.st26{fill:url(#SVGID_9_);}
	.st27{fill:url(#SVGID_10_);}
	.st28{fill:url(#SVGID_11_);}
	.st29{opacity:0.5;fill:#9B3427;stroke:#6D1919;stroke-miterlimit:10;enable-background:new    ;}
	.st30{fill:#E5846F;stroke:#6D1919;stroke-miterlimit:10;}
	.st31{fill:#CDA7C9;}
	.st32{fill:#9C769B;}
	.st33{fill:#DCC1DC;}
	.st34{fill:#BD3F3A;}
	.st35{fill:#721D1D;}
	.st36{fill:#4C457C;}
	.st37{fill:#272657;}
	.st38{fill:#462A11;}
	.st39{fill:#5E4838;}
	.st40{fill:#F1DCD0;}
	.st41{fill:#835958;}
</style>
<circle class="st0" cx="232.6" cy="207.8" r="192.2"/>
<path class="st1" d="M383.8,330.8l20.8-31.4c0.8-1.2,2.5-1.6,3.8-0.8l0,0L577,410.5c1.2,0.8,1.6,2.5,0.8,3.8l0,0L557,445.6
	c-0.8,1.2-2.5,1.6-3.8,0.8l0,0L384.5,334.6C383.3,333.8,382.9,332.1,383.8,330.8C383.7,330.9,383.8,330.8,383.8,330.8z"/>
<g id="LIVER-2">
	
		<radialGradient id="BASE-2_1_" cx="112.9032" cy="-740.2094" r="30.2667" gradientTransform="matrix(0.9015 0.4103 -1.0708 2.8192 -788.647 2276.127)" gradientUnits="userSpaceOnUse">
		<stop  offset="0.2" style="stop-color:#D95A7D"/>
		<stop  offset="0.38" style="stop-color:#E72E4D"/>
		<stop  offset="0.66" style="stop-color:#DE7691"/>
		<stop  offset="1" style="stop-color:#E69AAF"/>
	</radialGradient>
	<path id="BASE-2" class="st2" d="M94.7,270.3c-1.9,1.7-46.5-33.7-29.3-51.7s31-23.7,37-29.7s22.5-20.8,26.6-21.3
		s-11.1,16.5-13.1,31.5s-6.3,35.7-14.8,44C92.5,251.6,98.5,267,94.7,270.3z"/>
	
		<linearGradient id="DOWN_1-2_1_" gradientUnits="userSpaceOnUse" x1="-176.8936" y1="-504.3285" x2="-81.7451" y2="-555.9117" gradientTransform="matrix(0.7543 -0.6511 0.6511 0.7543 552.1976 536.1027)">
		<stop  offset="0" style="stop-color:#D95A7D"/>
		<stop  offset="0.15" style="stop-color:#DB6182"/>
		<stop  offset="0.38" style="stop-color:#DE7691"/>
		<stop  offset="0.67" style="stop-color:#E69AAF"/>
		<stop  offset="1" style="stop-color:#D95A7D"/>
	</linearGradient>
	<path id="DOWN_1-2" class="st3" d="M129,167.7c4.1-0.5-11.1,16.5-13.1,31.5s-6.3,35.7-14.8,44c-8.5,8.4-2.6,23.7-6.4,27.1
		c0,0-12.3-3.8,6.1-32.9c3.8-6.1,9.4-27.6,12-35.8C121.3,175.8,129,167.7,129,167.7z"/>
	
		<linearGradient id="DOWN_2-2_1_" gradientUnits="userSpaceOnUse" x1="-135.4216" y1="-541.2418" x2="-129.3775" y2="-533.3546" gradientTransform="matrix(0.7543 -0.6511 0.6511 0.7543 552.1976 536.1027)">
		<stop  offset="0" style="stop-color:#D95A7D"/>
		<stop  offset="5.000000e-02" style="stop-color:#D95C7E;stop-opacity:0.97"/>
		<stop  offset="0.12" style="stop-color:#DB6182;stop-opacity:0.88"/>
		<stop  offset="0.21" style="stop-color:#DB6B89;stop-opacity:0.73"/>
		<stop  offset="0.32" style="stop-color:#DE7792;stop-opacity:0.52"/>
		<stop  offset="0.43" style="stop-color:#E187A0;stop-opacity:0.27"/>
		<stop  offset="0.54" style="stop-color:#E69AAF;stop-opacity:0"/>
		<stop  offset="0.65" style="stop-color:#E697AD;stop-opacity:1.000000e-02"/>
		<stop  offset="0.71" style="stop-color:#E595AC;stop-opacity:4.000000e-02"/>
		<stop  offset="0.77" style="stop-color:#E492AA;stop-opacity:0.1"/>
		<stop  offset="0.81" style="stop-color:#E38DA4;stop-opacity:0.18"/>
		<stop  offset="0.85" style="stop-color:#E1869F;stop-opacity:0.28"/>
		<stop  offset="0.89" style="stop-color:#E07C97;stop-opacity:0.41"/>
		<stop  offset="0.93" style="stop-color:#DE7390;stop-opacity:0.56"/>
		<stop  offset="0.96" style="stop-color:#DB6A88;stop-opacity:0.74"/>
		<stop  offset="0.99" style="stop-color:#D95E7F;stop-opacity:0.94"/>
		<stop  offset="1" style="stop-color:#D95A7D"/>
	</linearGradient>
	<path id="DOWN_2-2" class="st4" d="M129,167.7c4.1-0.5-11.1,16.5-13.1,31.5s-6.3,35.7-14.8,44c-8.5,8.4-2.6,23.7-6.4,27.1
		c0,0-12.3-3.8,6.1-32.9c3.8-6.1,9.4-27.6,12-35.8C121.3,175.8,129,167.7,129,167.7z"/>
	
		<linearGradient id="DOWN_3-2_1_" gradientUnits="userSpaceOnUse" x1="-132.9007" y1="-540.488" x2="-126.1397" y2="-529.0071" gradientTransform="matrix(0.7543 -0.6511 0.6511 0.7543 552.1976 536.1027)">
		<stop  offset="0" style="stop-color:#D95A7D"/>
		<stop  offset="9.000000e-02" style="stop-color:#D95B7D;stop-opacity:0.99"/>
		<stop  offset="0.16" style="stop-color:#D95E7F;stop-opacity:0.95"/>
		<stop  offset="0.23" style="stop-color:#DB6182;stop-opacity:0.88"/>
		<stop  offset="0.29" style="stop-color:#DB6786;stop-opacity:0.79"/>
		<stop  offset="0.35" style="stop-color:#DC6F8B;stop-opacity:0.66"/>
		<stop  offset="0.4" style="stop-color:#DF7892;stop-opacity:0.51"/>
		<stop  offset="0.46" style="stop-color:#DF829D;stop-opacity:0.34"/>
		<stop  offset="0.51" style="stop-color:#E490A8;stop-opacity:0.14"/>
		<stop  offset="0.54" style="stop-color:#E69AAF;stop-opacity:0"/>
	</linearGradient>
	<path id="DOWN_3-2" class="st5" d="M129,167.7c4.1-0.5-11.1,16.5-13.1,31.5s-6.3,35.7-14.8,44c-8.5,8.4-2.6,23.7-6.4,27.1
		c0,0-12.3-3.8,6.1-32.9c3.8-6.1,9.4-27.6,12-35.8C121.3,175.8,129,167.7,129,167.7z"/>
	
		<linearGradient id="DOWN_4-2_1_" gradientUnits="userSpaceOnUse" x1="-132.4781" y1="-540.7648" x2="-125.7002" y2="-528.1368" gradientTransform="matrix(0.7543 -0.6511 0.6511 0.7543 552.1976 536.1027)">
		<stop  offset="0" style="stop-color:#50091B"/>
		<stop  offset="0.54" style="stop-color:#50091B;stop-opacity:0"/>
	</linearGradient>
	<path id="DOWN_4-2" class="st6" d="M129,167.7c4.1-0.5-11.1,16.5-13.1,31.5s-6.3,35.7-14.8,44c-8.5,8.4-2.6,23.7-6.4,27.1
		c0,0-12.3-3.8,6.1-32.9c3.8-6.1,9.4-27.6,12-35.8C121.3,175.8,129,167.7,129,167.7z"/>
	
		<radialGradient id="LEFT-3_1_" cx="-184.4783" cy="-991.9025" r="47.9391" gradientTransform="matrix(-0.9442 9.007472e-02 -0.1701 -1.0016 -232.2137 -746.0739)" gradientUnits="userSpaceOnUse">
		<stop  offset="0.5" style="stop-color:#D95A7D;stop-opacity:0"/>
		<stop  offset="0.53" style="stop-color:#792E8D;stop-opacity:0.24"/>
		<stop  offset="0.57" style="stop-color:#D95A7D;stop-opacity:0.47"/>
		<stop  offset="0.6" style="stop-color:#D95A7D;stop-opacity:0.66"/>
		<stop  offset="0.64" style="stop-color:#D95A7D;stop-opacity:0.81"/>
		<stop  offset="0.67" style="stop-color:#D95A7D;stop-opacity:0.91"/>
		<stop  offset="0.69" style="stop-color:#D95A7D;stop-opacity:0.98"/>
		<stop  offset="0.71" style="stop-color:#D95A7D"/>
		<stop  offset="0.77" style="stop-color:#D95A7D;stop-opacity:0.99"/>
		<stop  offset="0.8" style="stop-color:#D95B7D;stop-opacity:0.95"/>
		<stop  offset="0.84" style="stop-color:#D95D7E;stop-opacity:0.89"/>
		<stop  offset="0.87" style="stop-color:#DA5F80;stop-opacity:0.8"/>
		<stop  offset="0.9" style="stop-color:#DB6282;stop-opacity:0.68"/>
		<stop  offset="0.93" style="stop-color:#DB6685;stop-opacity:0.53"/>
		<stop  offset="0.95" style="stop-color:#DA6A88;stop-opacity:0.36"/>
		<stop  offset="0.98" style="stop-color:#DC6D8C;stop-opacity:0.17"/>
		<stop  offset="1" style="stop-color:#DD7290;stop-opacity:0"/>
	</radialGradient>
	<path id="LEFT-3" class="st7" d="M96.8,195.8C89,200.7,65.7,218,66,224.5c0.3,6.4,0.5,15.5,9.9,25.7c9.4,10.2,13.7,12.4,15.3,2.3
		c1.6-10.1-4.4-24.5-0.7-30.5C94.2,216,103,191.9,96.8,195.8z"/>
	
		<radialGradient id="SHINE_LEFT-2_1_" cx="-334.4599" cy="-957.5367" r="16.5083" gradientTransform="matrix(-0.9264 -0.3145 0.2476 -0.922 10.3002 -760.0143)" gradientUnits="userSpaceOnUse">
		<stop  offset="0.82" style="stop-color:#ECAFC0;stop-opacity:0"/>
		<stop  offset="0.91" style="stop-color:#FAD4A9"/>
		<stop  offset="0.96" style="stop-color:#ECAFC0;stop-opacity:0"/>
	</radialGradient>
	<path id="SHINE_LEFT-2" class="st8" d="M75.6,217.1c-0.8-0.3-5.3,3.7-6.2,9c-1.2,6.7,1.1,11.8,3,11.2c1.5-0.5-1.1-6.9-0.1-11.3
		C73.5,220.9,77.7,217.9,75.6,217.1z"/>
	
		<radialGradient id="RIGHT-3_1_" cx="178.4678" cy="-767.2426" r="6.7624" gradientTransform="matrix(0.9086 0.3829 -0.9414 2.7433 -773.6019 2225.9158)" gradientUnits="userSpaceOnUse">
		<stop  offset="0" style="stop-color:#D95A7D;stop-opacity:0.5"/>
		<stop  offset="0.2" style="stop-color:#E83522;stop-opacity:0.49"/>
		<stop  offset="0.38" style="stop-color:#D95D7E;stop-opacity:0.44"/>
		<stop  offset="0.55" style="stop-color:#DB6181;stop-opacity:0.37"/>
		<stop  offset="0.71" style="stop-color:#DB6585;stop-opacity:0.27"/>
		<stop  offset="0.86" style="stop-color:#DB6C8A;stop-opacity:0.14"/>
		<stop  offset="1" style="stop-color:#DD7290;stop-opacity:0"/>
	</radialGradient>
	<path id="RIGHT-3" class="st9" d="M103.2,190.3c-3.4,4.7,2,16.5,4.9,17.4c3.9,1.2,4.4-7.3,5.9-13.1c0.9-3.5,11.6-20.2,8.4-19.5
		S107.4,184.5,103.2,190.3z"/>
	
		<radialGradient id="SHINE_RIGHT-2_1_" cx="-163.1035" cy="-571.0454" r="14.3573" gradientTransform="matrix(0.5597 -0.7456 0.781 0.6201 656.5216 424.2644)" gradientUnits="userSpaceOnUse">
		<stop  offset="0.83" style="stop-color:#ECAFC0;stop-opacity:0"/>
		<stop  offset="0.84" style="stop-color:#ECAFC0;stop-opacity:2.000000e-02"/>
		<stop  offset="0.84" style="stop-color:#ECAFC0;stop-opacity:8.000000e-02"/>
		<stop  offset="0.85" style="stop-color:#ECAFC0;stop-opacity:0.18"/>
		<stop  offset="0.86" style="stop-color:#ECAFC0;stop-opacity:0.32"/>
		<stop  offset="0.87" style="stop-color:#ECAFC0;stop-opacity:0.5"/>
		<stop  offset="0.88" style="stop-color:#ECAFC0;stop-opacity:0.72"/>
		<stop  offset="0.89" style="stop-color:#ECAFC0;stop-opacity:0.97"/>
		<stop  offset="0.89" style="stop-color:#ECAFC0"/>
		<stop  offset="0.93" style="stop-color:#ECAFC0;stop-opacity:0.35"/>
		<stop  offset="0.94" style="stop-color:#ECAFC0;stop-opacity:0"/>
	</radialGradient>
	<path id="SHINE_RIGHT-2" class="st10" d="M102.6,193.5c-1.1,3.6,1,8.6,1.7,7.1s0.8-9.4,1.9-11.9
		C107.3,186.2,104.7,186.4,102.6,193.5z"/>
</g>
<g>
	<g id="R-ICO-013971">
		<g id="BOTTOM">
			
				<linearGradient id="RIGHT_BG_1_" gradientUnits="userSpaceOnUse" x1="351.1703" y1="-901.4728" x2="393.2247" y2="-796.3348" gradientTransform="matrix(0.98 -0.2 0.2 0.98 40.8703 1006.7625)">
				<stop  offset="0" style="stop-color:#DE6F8B"/>
				<stop  offset="1" style="stop-color:#97475C"/>
			</linearGradient>
			<path id="RIGHT_BG" class="st11" d="M216.6,52.9c-9,2.3-5.6,14-3.5,20.9s0.5,9.8,1.1,16.4c0.7,6.6,2.7,13.8,4.3,19.3
				s1.8,16.4,6,17.6c4.2,1.3,23.9,1.7,29.3,6c5.4,4.2,8.2-8.2,4.5-25.1c-3.8-16.9-7.7-30.7-11.7-36.6
				C242.5,65.5,227.3,50.1,216.6,52.9z"/>
			
				<radialGradient id="RIGHT_MID_1_" cx="235.0255" cy="677.4144" r="33.4346" gradientTransform="matrix(1 0 0 1 0 -583.9974)" gradientUnits="userSpaceOnUse">
				<stop  offset="0.46" style="stop-color:#97475C"/>
				<stop  offset="0.81" style="stop-color:#DA2216;stop-opacity:0"/>
			</radialGradient>
			<path id="RIGHT_MID" class="st12" d="M252.3,125.4c-5.4-4.3-6.9-3.7-11.2-5c-4.2-1.3-6.3-0.9-7.9-6.4c-1.6-5.5-4-11.3-4.6-17.9
				s-6.5-14.9-8.6-21.8s-12.3-19.1-3.3-21.4c-9,2.3-5.6,14-3.5,20.9s0.5,9.8,1.1,16.4c0.7,6.6,2.7,13.8,4.3,19.3s1.8,16.4,6,17.6
				c4.2,1.3,23.9,1.7,29.3,6c2.5,2,4.5,0.3,5.5-4C258.3,133.3,254.8,127.4,252.3,125.4z"/>
			
				<linearGradient id="LEFT_BG_1_" gradientUnits="userSpaceOnUse" x1="333.2555" y1="-907.3581" x2="318.7051" y2="-795.4782" gradientTransform="matrix(0.98 -0.2 0.2 0.98 40.8703 1006.7625)">
				<stop  offset="0" style="stop-color:#DE6F8B"/>
				<stop  offset="1" style="stop-color:#97475C"/>
			</linearGradient>
			<path id="LEFT_BG" class="st13" d="M189.4,58.3c9.1-1.3,10.5,10.7,11.3,17.9c0.7,7.2,3.3,9.2,5.3,15.6c1.9,6.4,2.8,13.8,3.5,19.5
				c0.6,5.7,4.7,15.8,1.3,18.6c-3.4,2.8-21.4,10.8-24.7,16.8s-10.7-4.4-13.8-21.4S167.6,94,169,86.9
				C170.2,79.9,178.4,59.9,189.4,58.3z"/>
			
				<radialGradient id="LEFT_MID_1_" cx="318.9588" cy="-837.315" r="31.2418" gradientTransform="matrix(0.98 -0.2 0.4 1.99 207.0805 1828.2437)" gradientUnits="userSpaceOnUse">
				<stop  offset="0.46" style="stop-color:#97475C"/>
				<stop  offset="0.81" style="stop-color:#DA2216;stop-opacity:0"/>
			</radialGradient>
			<path id="LEFT_MID" class="st14" d="M209.4,111.3c-0.6-5.7-1.5-13.2-3.5-19.5c-1.9-6.3-4.5-8.4-5.3-15.6
				c-0.7-7.2-2.2-19.3-11.3-17.9c9.1-1.3,7.4,11.6,8.1,18.7c0.7,7.1-0.1,13.5,1.8,19.8c2,6.4,1.7,15.2,2.3,20.9
				c0.6,5.7-1.6,7.9-5,10.7c-3.4,2.8-6.9,5.1-10.2,11.1c-0.9,1.6-2.5,9.1-3.8,8.6c1.3,0.5,2.5,0.1,3.4-1.5c3.3-6,21.3-14,24.7-16.8
				C214.1,127,210,117,209.4,111.3z"/>
		</g>
		<g id="TOP-2">
			
				<radialGradient id="RIGHT-2-2_1_" cx="368.6651" cy="-805.5559" r="35.7951" gradientTransform="matrix(0.93 -0.36 0.74 2.06 482.6809 1879.7142)" gradientUnits="userSpaceOnUse">
				<stop  offset="0" style="stop-color:#DE6F8B"/>
				<stop  offset="1" style="stop-color:#D1161D"/>
			</radialGradient>
			<path id="RIGHT-2-2" class="st15" d="M216.6,52.9c-9,2.3,1.3,14.5,3.3,21.4c2.1,6.9,7.9,15.2,8.6,21.8c0.7,6.6,3,12.4,4.6,17.9
				s3.7,5.2,7.9,6.4s5.8,0.7,11.2,5c2.6,2,6.1,8,7.1,3.7c1.1-4.7,0.9-12.2-1.1-21c-3.7-16.9-7.7-30.7-11.7-36.7
				C242.5,65.4,227.3,50.1,216.6,52.9z"/>
			
				<radialGradient id="LEFT-2-2_1_" cx="294.2651" cy="-872.0932" r="45.8861" gradientTransform="matrix(1 6.000000e-02 -8.000000e-02 2.85 -175.6601 2567.7056)" gradientUnits="userSpaceOnUse">
				<stop  offset="0" style="stop-color:#DE6F8B"/>
				<stop  offset="1" style="stop-color:#D1161D"/>
			</radialGradient>
			<path id="LEFT-2-2" class="st16" d="M189.4,58.3c9.1-1.3,7.4,11.6,8.1,18.7c0.7,7.1-0.1,13.5,1.8,19.8c2,6.4,1.7,15.2,2.3,20.9
				c0.6,5.7-1.6,7.9-5,10.7c-3.4,2.8-6.9,5.1-10.2,11.1c-0.9,1.6-2.5,9.2-3.8,8.6c-3.6-1.5-8.2-10.4-10.4-22.9
				c-3.1-17-4.7-31.3-3.3-38.4C170.2,79.9,178.4,59.9,189.4,58.3z"/>
		</g>
		<g id="CANCER_SPOTS" class="st17">
			
				<radialGradient id="SVGID_1_" cx="269.2097" cy="-920.501" r="1.4982" gradientTransform="matrix(0.98 -0.2 0.2 0.98 104.8702 1049.6926)" gradientUnits="userSpaceOnUse">
				<stop  offset="0.17" style="stop-color:#210F13"/>
				<stop  offset="0.54" style="stop-color:#97475C"/>
				<stop  offset="1" style="stop-color:#DE6F8B;stop-opacity:0"/>
			</radialGradient>
			<circle class="st18" cx="185.9" cy="98.3" r="1.5"/>
			
				<radialGradient id="SVGID_2_" cx="120.0347" cy="556.963" r="2.1178" gradientTransform="matrix(1 0 0 -1 0 86.0001)" gradientUnits="userSpaceOnUse">
				<stop  offset="0.17" style="stop-color:#210F13"/>
				<stop  offset="0.54" style="stop-color:#97475C"/>
				<stop  offset="1" style="stop-color:#DE6F8B;stop-opacity:0"/>
			</radialGradient>
			<circle class="st19" cx="181" cy="93.6" r="2.1"/>
			
				<radialGradient id="SVGID_3_" cx="121.1525" cy="564.4185" r="2.1178" gradientTransform="matrix(1 0 0 -1 0 86.0001)" gradientUnits="userSpaceOnUse">
				<stop  offset="0.17" style="stop-color:#210F13"/>
				<stop  offset="0.54" style="stop-color:#97475C"/>
				<stop  offset="1" style="stop-color:#DE6F8B;stop-opacity:0"/>
			</radialGradient>
			<circle class="st20" cx="183.5" cy="100.7" r="2.1"/>
			
				<radialGradient id="SVGID_4_" cx="122.5095" cy="559.528" r="3.2983" gradientTransform="matrix(1 0 0 -1 0 86.0001)" gradientUnits="userSpaceOnUse">
				<stop  offset="0.17" style="stop-color:#210F13"/>
				<stop  offset="0.54" style="stop-color:#97475C"/>
				<stop  offset="1" style="stop-color:#DE6F8B;stop-opacity:0"/>
			</radialGradient>
			<circle class="st21" cx="183.9" cy="95.6" r="3.3"/>
			
				<radialGradient id="SVGID_5_" cx="116.6227" cy="560.6104" r="5.7652" gradientTransform="matrix(1 0 0 -1 0 86.0001)" gradientUnits="userSpaceOnUse">
				<stop  offset="0.17" style="stop-color:#210F13"/>
				<stop  offset="0.54" style="stop-color:#97475C"/>
				<stop  offset="1" style="stop-color:#DE6F8B;stop-opacity:0"/>
			</radialGradient>
			<circle class="st22" cx="178.3" cy="97.8" r="5.8"/>
		</g>
	</g>
	<g id="SHINE-2-2">
		
			<radialGradient id="SVGID_6_" cx="746.7427" cy="1864.8947" r="16.4808" gradientTransform="matrix(0.3026 -0.4454 0.1182 0.1157 -236.2995 211.1651)" gradientUnits="userSpaceOnUse">
			<stop  offset="0" style="stop-color:#FFFFFF"/>
			<stop  offset="1" style="stop-color:#DEADCA;stop-opacity:0"/>
		</radialGradient>
		<path class="st23" d="M192.1,115.1c1-4,8.2-12,10.7-13.1c2.4-1.1,2.9,1.1,0.8,5c-2.1,4-5.2,15.6-8.4,14.6
			C192,120.6,191.3,118.3,192.1,115.1z"/>
		
			<radialGradient id="SVGID_7_" cx="1022.5577" cy="-370.391" r="12.409" gradientTransform="matrix(0.4633 -0.1157 2.836775e-02 0.1735 -291.9067 269.5853)" gradientUnits="userSpaceOnUse">
			<stop  offset="0" style="stop-color:#FFFFFF"/>
			<stop  offset="1" style="stop-color:#DEADCA;stop-opacity:0"/>
		</radialGradient>
		<path class="st24" d="M178.7,90.1c-0.2,0.1-0.4,0.1-0.6,0c-3.8-1-9.8,1.2-11.6,2.9c-0.7,0.5-1.6,0.3-2-0.5
			c-0.1-0.1-0.1-0.1-0.1-0.2c-0.5-0.9-0.3-2.2,0.4-2.9c2.4-2.1,9.2-4.6,13.8-3.4c0.9,0.3,1.4,1.3,1.3,2.4
			C179.7,89.3,179.3,89.9,178.7,90.1z"/>
		
			<radialGradient id="SVGID_8_" cx="1028.9119" cy="-943.0262" r="6.5644" gradientTransform="matrix(0.4728 -1.735394e-02 9.455916e-03 0.3182 -306.3726 402.3641)" gradientUnits="userSpaceOnUse">
			<stop  offset="0" style="stop-color:#FFFFFF"/>
			<stop  offset="1" style="stop-color:#DEADCA;stop-opacity:0"/>
		</radialGradient>
		<path class="st25" d="M172.1,78.2c-1.5-0.3-3-0.2-4.4,0.2c-0.8,0.2-1.6-0.4-1.8-1.3c0,0,0,0,0-0.1l0,0c0-0.1,0-0.1-0.1-0.2
			c-0.2-1.1,0.4-2.1,1.2-2.5c1.6-0.7,3.4-0.8,5.1-0.3C174.2,74.6,174.1,78.5,172.1,78.2z"/>
		
			<radialGradient id="SVGID_9_" cx="1005.3776" cy="-146.7866" r="12.409" gradientTransform="matrix(0.4539 -0.162 3.309571e-02 0.1388 -288.2516 239.3795)" gradientUnits="userSpaceOnUse">
			<stop  offset="0" style="stop-color:#FFFFFF"/>
			<stop  offset="1" style="stop-color:#DEADCA;stop-opacity:0"/>
		</radialGradient>
		<path class="st26" d="M174.1,67.7c-0.2,0.1-0.4,0.1-0.6,0c-3.8-1-9.8,1.2-11.6,2.9c-0.7,0.5-1.6,0.3-2-0.5
			c-0.1-0.1-0.1-0.1-0.1-0.2c-0.5-0.9-0.3-2.2,0.4-2.9c2.4-2.1,9.2-4.6,13.8-3.4c0.9,0.3,1.4,1.3,1.3,2.4
			C175.2,66.8,174.8,67.5,174.1,67.7z"/>
		
			<radialGradient id="SVGID_10_" cx="1050.8832" cy="-566.8218" r="17.0717" gradientTransform="matrix(0.4633 -0.1157 2.363979e-02 0.133 -299.4478 233.038)" gradientUnits="userSpaceOnUse">
			<stop  offset="0" style="stop-color:#FFFFFF"/>
			<stop  offset="1" style="stop-color:#DEADCA;stop-opacity:0"/>
		</radialGradient>
		<path class="st27" d="M175.2,55.8c-0.2,0.1-0.4,0.1-0.7,0c-4.3-0.9-11.2,1.6-13.3,3.2c-0.8,0.6-1.9,0.3-2.4-0.7s-0.3-2.2,0.5-2.9
			l0,0c2.8-2.3,10.6-5,15.8-3.9c0.9,0.2,1.6,1.3,1.4,2.5l0,0C176.5,54.9,175.9,55.6,175.2,55.8z"/>
		
			<radialGradient id="SVGID_11_" cx="1052.1116" cy="-153.927" r="14.8585" gradientTransform="matrix(0.4633 -0.1157 2.363979e-02 0.133 -298.0862 241.3563)" gradientUnits="userSpaceOnUse">
			<stop  offset="0" style="stop-color:#FFFFFF"/>
			<stop  offset="1" style="stop-color:#DEADCA;stop-opacity:0"/>
		</radialGradient>
		<path class="st28" d="M166.9,97.1c0.2-0.1,0.4-0.1,0.7,0c4.5,0.9,11.8-1.7,14-3.4c0.8-0.7,2-0.4,2.5,0.6s0.3,2.3-0.5,2.9l0,0
			l-0.1,0.1c-3,2.3-11.2,5.2-16.7,4.1c-0.9-0.1-1.6-1.1-1.5-2.2c0-0.1,0-0.1,0-0.2l0,0v-0.1C165.6,98,166.2,97.3,166.9,97.1z"/>
	</g>
</g>
<g>
	<path class="st29" d="M140.3,287.2c-12.5-3.5-22.8,23.7-10.4,33c9.6,7.2,42,33.2,56.8,39.8c21.2,9.5,34.7-40.3,18-46
		c-12.5-4.1-24.6-9.2-36.4-15.1C161.1,295.4,146,288.8,140.3,287.2z"/>
	<path class="st30" d="M203.3,317.5c14,5.2,2.9,46.4-15.2,38.9c-8.9-3.7-6.5-19.6-4.8-24.8C186.5,321.9,194.2,314.1,203.3,317.5z"/>
</g>
<g>
	<path class="st30" d="M328.2,147.2c-1,0-2.1,0.3-3,0.9l0,0c-5.2-1.2-9.3-2.1-13-0.7c-13.6,5.2-9.8,26.3,2.7,35.2l8.6-2.3l-0.2-3.2
		l-2.9-1.7c-7.6-5.4-8.8-10.6-7.9-14.5c0.6-2.4,1.6-3.3,3.4-4c2.5-0.4,4,0.5,6.4,1c0.4,1,1,1.8,1.8,2.5L328.2,147.2z"/>
	<path class="st30" d="M324,81.2l3.8,14.7c1.7,6.7,7.3,11.7,14.1,12.7c0.8,0.1,1.7,0.2,2.6,0.3c0.2,0.9,0.4,1.8,0.8,2.7l9.2-15.3
		c-2.3,0.2-4.5,1.1-6.3,2.6c-1.2,0-2.4-0.1-3.6-0.3h-0.1c-3.2-0.4-5.8-2.7-6.7-5.8l-3.7-14.2L324,81.2z"/>
	<g id="Stomach-2">
		<path class="st30" d="M354.6,96.2c-8.7,1.1-12,9-9.2,15.3c10,22.6-2,35-17.3,35.7c-6.3,0.3-8.7,9.3-4.1,13.3
			c5.3,4.7,43.7,14,53.9-21C386.7,109.5,362.8,95.2,354.6,96.2z"/>
		<path class="st30" d="M354.6,96.2c-8.7,1.1-12,9-9.2,15.3c10,22.6-2,35-17.3,35.7c-6.3,0.3-8.7,9.3-4.1,13.3
			c5.3,4.7,43.7,14,53.9-21C386.7,109.5,362.8,95.2,354.6,96.2z"/>
		<path class="st30" d="M354.6,96.2c-8.7,1.1-12,9-9.2,15.3c10,22.6-2,35-17.3,35.7c-6.3,0.3-8.7,9.3-4.1,13.3
			c5.3,4.7,43.7,14,53.9-21C386.7,109.5,362.8,95.2,354.6,96.2z"/>
	</g>
</g>
<g>
	<path id="BG-5" class="st31" d="M209.8,170.9c-27.6,9.9-43.5,39.3-32.8,64.7c4,9.4,11.2,20.8,21.3,21.7
		c19.3,1.8,22.1-13.8,39.4-20.1c17.2-6.2,34.2,8.1,43.7-9.5c4.6-8.5,3.9-20.1-0.1-29.6C270.6,172.8,237.3,161,209.8,170.9z"/>
	<path id="MID" class="st32" d="M209.8,170.9c-14.1,5.1-25.4,15.2-31.5,28c-5.5,11.4-6.4,24.6-1.3,36.8c4,9.4,11.2,20.8,21.3,21.7
		c19.3,1.8,22.1-13.8,39.4-20.1c17.2-6.2,34.2,8.1,43.7-9.5c0.2-0.4,0.4-0.7,0.6-1.1c4-8.4,3.2-19.4-0.6-28.5
		C270.6,172.8,237.3,161,209.8,170.9z M257.6,203.2c0.2,0,0.4-0.1,0.5-0.3l0,0c0.5-2.1,0.8-4.2,1-6.4c0.2-2.1,0.2-4.3,0.4-6.3
		c0.2-2,0.8-4,1.7-5.8c0.2-0.4,0.5-0.9,0.8-1.3s0.6-0.8,0.9-1.2s0.7-0.7,1.1-1c6.4,4.7,11.5,11,14.7,18.3c0.7,1.7,1.3,3.5,1.8,5.3
		c-0.3,0.6-0.7,1.1-1.2,1.5c-1.1,0.9-2.6,1.1-4.2,1.3l-5,0.6c-1.8,0.1-3.5,0.7-5.1,1.6c-0.2,0.1-0.3,0.4-0.1,0.6c0,0,0,0,0,0.1
		c0.2,0.2,0.4,0.2,0.6,0.1l0,0c1.5-0.7,3-1,4.6-1c1.7-0.1,3.4,0.2,5.2,0c0.9-0.1,1.8-0.3,2.7-0.6c0.9-0.3,1.8-0.8,2.5-1.5
		c0.2-0.2,0.3-0.3,0.5-0.5c0.9,4.3,1,8.7,0.2,13c-0.8,0.6-1.7,1-2.7,1.2c-1.6,0.3-3.3,0.4-5,0.2c-1.8-0.2-3.6-0.4-5.4-0.5
		c-0.9,0-1.9,0-2.8,0.2s-1.8,0.6-2.6,1.1c-0.2,0.1-0.2,0.3-0.1,0.4l0,0c0.1,0.2,0.3,0.2,0.5,0.1l0,0c1.6-0.6,3.3-0.8,5-0.5
		c1.7,0.2,3.5,0.6,5.3,0.8c1.9,0.4,3.9,0.4,5.8,0c0.5-0.1,1-0.3,1.5-0.5c-0.3,1.1-0.7,2.1-1.2,3.1c-0.2,0.3-0.3,0.6-0.5,0.9
		c-4.8,8.8-11.1,8.1-20.7,7c-6.5-0.7-13.9-1.6-21.5,1.1c-7.7,2.8-12.7,7.2-17.2,11.1c-6.1,5.4-10.9,9.7-20.9,8.7
		c-9.8-0.9-16.4-14.3-18.9-20c-2.1-5-3.2-10.5-3.2-15.9c1.1,0.4,2.3,0.8,3.5,1c2.1,0.4,4.2,0.4,6.1,0.6c1.9,0.2,3.7,0.7,5.4,1.5
		c1.6,0.9,3.1,2,4.3,3.4l0,0c0.3,0.3,0.8,0.4,1.1,0.1c0.3-0.2,0.4-0.7,0.2-1l0,0c-1.2-1.7-2.8-3.1-4.5-4.2c-0.8-0.5-1.7-0.9-2.6-1.2
		c0.6-0.4,1.1-0.8,1.6-1.3c0.7-0.6,1.3-1.3,1.9-2c0.6-0.7,1.1-1.4,1.7-2l0,0c0.1-0.1,0.1-0.3,0-0.4l0,0c-0.1-0.1-0.3-0.1-0.4,0
		c-0.8,0.5-1.5,1.1-2.2,1.8c-0.7,0.6-1.3,1.3-1.9,1.8c-0.7,0.5-1.4,0.9-2.2,1.1c-0.6,0.2-1.2,0.3-1.9,0.2c-2.1-0.4-4-0.8-5.9-1.1
		c-1.4-0.2-2.7-0.5-4-0.9c0.4-5.4,1.8-10.8,4.1-15.7c0.9,0.2,1.8,0.4,2.7,0.7c1.3,0.4,2.7,0.9,4,1.4s2.6,1.1,3.8,1.8
		s2.4,1.4,3.6,2.3c0.3,0.2,0.6,0.1,0.9-0.1c0.2-0.2,0.1-0.6-0.1-0.8l0,0l0,0c-1.1-0.8-2.3-1.7-3.5-2.5s-2.5-1.6-3.8-2.2
		c-1.4-0.6-2.8-1.1-4.2-1.5c-0.8-0.2-1.7-0.4-2.5-0.6c4.4-8.6,11.1-15.7,19.3-20.7c-0.3,0.7-0.5,1.5-0.7,2.2c-0.5,1.8-0.5,3.7,0,5.5
		s1.2,3.4,2.2,4.9c0.5,0.8,1,1.5,1.5,2.2s1.1,1.4,1.7,2.1c2.4,2.8,5.3,4.9,7.9,7.3c1.3,1.1,2.4,2.4,3.3,3.9c0.9,1.4,1.4,3,1.4,4.6
		c0,0.3,0.3,0.6,0.6,0.6s0.6-0.3,0.6-0.6l0,0c0-1.8-0.4-3.6-1.4-5.2c-0.9-1.6-2.1-3-3.4-4.2c-2.5-2.5-5.1-4.9-7.3-7.6
		c-0.5-0.7-1-1.3-1.5-2s-1-1.4-1.4-2.1c-0.9-1.4-1.6-2.8-2.1-4.4c-0.4-1.5-0.5-3.1-0.2-4.7c0.3-1.3,0.6-2.6,1.1-3.8
		c4.9-2.7,10.2-4.6,15.7-5.7c-1,1.9-1.5,4-1.6,6.1c-0.1,2.8,0.6,5.5,1.9,7.9c0.4,0.7,0.8,1.5,1.1,2.3c0.3,0.7,0.6,1.3,0.8,2
		s0.3,1.4,0.3,2.1s0,1.4-0.2,2.1l0,0c0,0.2,0.1,0.3,0.2,0.4l0,0c0.1,0,0.3,0,0.4-0.2c0.4-0.7,0.6-1.5,0.7-2.3
		c0.1-0.8,0.1-1.6-0.1-2.4l-0.1-0.4c0.1,0.1,0.3,0.2,0.4,0.3c1.2,0.9,2.4,1.8,3.6,2.7c1.1,0.8,2.2,1.8,3,2.9
		c0.4,0.5,0.7,1.1,0.9,1.7s0.3,1.3,0.2,1.9c0,0.3,0.2,0.5,0.5,0.5s0.5-0.2,0.6-0.5l0,0c0.1-1.5-0.4-3.1-1.2-4.3
		c-0.9-1.2-1.9-2.3-3.1-3.3c-2.2-2-4.4-3.9-5.8-6.1c-1.4-2.3-2.2-4.8-2.3-7.5c0-2.3,0.6-4.5,1.7-6.5c8.2-1.3,16.6-0.8,24.6,1.3
		c0.3,1.4,0.5,2.8,0.4,4.2c0,1.9-0.3,3.8-0.9,5.7c-1,3.7-3,7.2-4.6,11c-0.2,0.5-0.4,1-0.5,1.6s-0.2,1.1-0.2,1.7
		c0,1.1,0.2,2.1,0.5,3.2c0.6,2,1.4,3.9,2.1,5.7c0.7,1.8,1.3,3.7,1.8,5.7c0.5,1.9,0.7,3.9,0.6,5.8l0,0c0,0.2,0.2,0.4,0.4,0.4l0,0
		c0.2,0,0.4-0.2,0.5-0.4c0.2-2,0-4.1-0.3-6.1c-0.4-2-0.9-3.9-1.5-5.9c-0.6-1.9-1.2-3.8-1.6-5.7c-0.2-0.9-0.2-1.8-0.2-2.7
		c0-0.4,0.1-0.9,0.2-1.3c0.1-0.4,0.3-0.8,0.5-1.2c0.4-1,0.9-1.9,1.3-2.9c0.2,0.8,0.5,1.5,0.8,2.2c0.5,0.8,1,1.6,1.6,2.4
		c0.3,0.4,0.6,0.8,0.8,1.1c0.3,0.3,0.5,0.7,0.7,1.1l0,0l0,0c0.1,0.2,0.4,0.2,0.6,0.1c0.2-0.1,0.3-0.3,0.2-0.5l0,0
		c-0.3-0.4-0.6-0.8-0.8-1.2s-0.5-0.8-0.7-1.1c-0.4-0.8-0.8-1.6-1-2.4c-0.3-0.8-0.5-1.6-0.6-2.5c-0.1-0.8-0.1-1.6-0.1-2.4
		c0-0.1,0-0.3,0.1-0.4c0.6-1.6,1.2-3.2,1.6-4.8c0.5-2,0.7-4.1,0.7-6.2c-0.1-1.2-0.2-2.5-0.6-3.7c1.1,0.3,2.3,0.7,3.4,1.1
		c4.1,1.5,8.1,3.6,11.7,6c-1.4,0.9-2.5,2.2-3.2,3.6c-1.1,2.1-1.3,4.4-1.5,6.5s-0.2,4.3-0.2,6.4s-0.1,4.2-0.3,6.3l0,0
		C257.3,203,257.4,203.1,257.6,203.2L257.6,203.2z"/>
	<g id="TOP">
		<path class="st33" d="M206.6,246.9c-6.1,2.2-14.9-0.7-19.9-8.1s-5.1-8.7-3.1-11.5s10.7,8.6,10.7,8.6s-2.1-7.7,2.8-6.3
			s0.6,5.1,4.3,9.2S213.6,244.4,206.6,246.9z"/>
		<path class="st33" d="M223.9,242.1c-8.6-0.3-4.3,3.7-7.2,4c-1,0.1-3.9-2-1.4-4.2c2.4-2.2-4.6-4.9-3.6-6.4c0.9-1.5,4-1.5,6.8-0.8
			c2.9,0.7-2-7.4,0.2-9.1c2.2-1.6,1.6,5.8,5.7,7.9c4.1,2.1,6.1,3.1,8.8,1c2.6-2.1,6.2-7.7,6-12.5c-0.3-4.8-4.9-12-1.3-11.8
			c3.6,0.2,5.2,6.1,6.2,12.2s-3.5,7.8,1.1,8.2s12.6-2.1,13.3-3.6s7.7-3.1,7.7,1.2s-0.6,8.5-14,6.7c-13.5-1.8-16.3,0.8-22.6,4.9
			C223.1,243.8,223.9,242.1,223.9,242.1z"/>
		<path class="st33" d="M228.8,229.9c2.7-0.4-0.2-11.8,3.1-18.5c3.2-6.8,7.9-23.4,5.2-27.3s-12.2-6.9-9.9-1.5s11.3,9.3,6.2,19.5
			c-5.1,10.3-12.9-8.2-18.1-9.9c-5.2-1.7-6.1,3.2,0.8,7.1s10.1,11.6,8.1,14.9s-12.7,3.5-14-4.1c-1.3-7.5-10.7-14.8-13.2-10.9
			s7.2,6.5,6.4,11.7c-0.9,5.2-7.4,3.9-4.9,8.4c5.7,10.4,8.7-2.2,18.9,1.5C225,223.8,224.1,230.5,228.8,229.9z"/>
		<path class="st33" d="M249.2,226c-2.9-1.9,2.4-4.5,3.9-8.2s-3-11.6-2-15.7s-4.6-17.8-0.5-18.7s5.4,6.2,4.2,10.2
			s-0.7,15.3,1.5,14.9c2.2-0.4,5-19.2,8.4-17.7c3.4,1.6,8.6,8.2,2.3,12.2s-2.8,6.7-4.5,12s-6.9,5.9-7.1,7.5
			C255.1,224.2,251.8,227.7,249.2,226z"/>
	</g>
	<g id="RED">
		<path id="RED-2" class="st34" d="M251.9,185c-0.4,2.4-0.6,4.8-0.6,7.2s0.2,4.8,0.6,7.2c0.4,2.4,0.9,4.7,1.2,7.1
			c0.4,2.3,0.5,4.7,0.5,7.1c0,0.6,0,1.2-0.1,1.8c0,0.6-0.1,1.1-0.2,1.7c-0.3,1.1-0.8,2.1-1.6,2.9c-1.6,1.8-3.5,3.4-5.6,4.6
			c-2.1,1.3-4.3,2.6-6.6,3.7c-1.8,1-3.7,1.9-5.5,2.8c-0.3-1.3-0.9-2.5-1.6-3.6c-1-1.5-2.2-2.9-3.6-4l-0.2-0.2
			c-0.3-1.8-0.3-3.6,0-5.4c0.3-1.9,0.7-3.8,1.3-5.7c1.1-3.8,2.5-7.5,4.2-11.1l0.6-1.3c0.2-0.4,0.4-0.9,0.7-1.4
			c0.4-0.9,0.7-1.9,0.9-2.9c0.3-2,0.3-4-0.1-6c-0.4-2-1.1-3.9-2.1-5.7c-1.1-1.8-2.5-3.3-4.3-4.4h-0.1v0.1c1.6,1.2,2.9,2.8,3.8,4.6
			c0.9,1.7,1.5,3.6,1.8,5.5s0.3,3.8-0.1,5.7c-0.2,0.9-0.5,1.9-0.8,2.7c-0.2,0.4-0.4,0.9-0.6,1.3c-0.2,0.5-0.4,0.9-0.6,1.4
			c-0.7,1.5-1.3,3-1.9,4.6c0-1.3-0.4-2.5-0.9-3.7c-0.6-1.2-1.4-2.3-2.4-3.3c-0.9-1-1.9-1.9-2.7-2.9h-0.1c0,0-0.1,0.1,0,0.1l0,0
			c0.8,1.1,1.6,2.1,2.4,3.1c0.8,1,1.4,2.1,1.9,3.3c0.5,1.1,0.8,2.3,0.9,3.6c0,0.9,0,1.9-0.2,2.8c-0.4,1.2-0.8,2.4-1.1,3.6
			c-0.6,1.9-1,3.9-1.3,5.8c-0.3,1.5-0.3,3-0.2,4.6c-1-0.6-2-1.2-3-1.7c-1.6-0.8-3.3-1.4-5-2c-1.6-0.6-3.3-1.3-4.8-2.1
			c-3.1-1.6-6.2-3.3-9.1-5.3c-2.9-1.9-5.6-4.1-8.2-6.4c-2.6-2.3-5-4.8-7.2-7.4l0,0c-0.1-0.1-0.2-0.1-0.3,0s-0.1,0.2,0,0.2
			c2.2,2.6,4.6,5.2,7.1,7.5c2.6,2.4,5.3,4.6,8.2,6.6s5.9,3.8,9.1,5.4c1.6,0.8,3.2,1.5,4.9,2.2c0.8,0.4,1.7,0.6,2.5,1
			c0.8,0.3,1.6,0.7,2.4,1.1c1.5,0.8,2.9,1.8,4.2,2.9c1.2,1.1,2.2,2.4,2.9,3.8s1.1,2.9,1.3,4.4c0.2,1.7,0.5,3.3,0.7,5
			c0.3,2.1,0.7,4.2,1.2,6.3c-4.7-0.5-9.4-1-14.1-1.3c-1.3-0.1-2.7-0.1-4.1,0c-1.4,0-2.8,0.2-4.2,0.6c-0.3,0.1-0.6,0.3-1,0.5
			c-0.3,0.1-0.5,0.3-0.8,0.4c-0.6,0.2-1.2,0.4-1.8,0.5c-0.3,0-0.6,0.1-0.9,0.1c-1.4-0.5-2.8-1.1-4.1-1.9c-1.3-0.7-2.5-1.7-3.4-2.9
			s-1.6-2.5-2-3.9c-0.5-1.4-0.9-2.8-1.1-4.3c0,0,0-0.1-0.1-0.1c0,0-0.1,0-0.1,0.1c0,1.5,0.3,3,0.7,4.4c0.4,1.5,1.1,2.9,2,4.1
			c0.9,1.3,2,2.5,3.4,3.4c0.6,0.4,1.2,0.7,1.9,1h-0.2c-2.6-0.2-5.1-0.8-7.5-1.8c-2.3-1-4.5-2.5-6.4-4.2c-1.8-1.7-3.5-3.7-4.8-5.8
			s-2.4-4.3-3.3-6.7l-0.1-0.1l-0.1,0.1l0,0c0.8,2.4,1.9,4.6,3.2,6.8s2.9,4.2,4.7,6c1.9,1.8,4.1,3.4,6.4,4.5c2.5,1.2,5.1,1.9,7.8,2.1
			c1.4,0.1,2.8,0.1,4.1-0.1c0.7-0.1,1.4-0.2,2-0.5c0.3-0.1,0.7-0.2,1-0.4c0.3-0.1,0.5-0.3,0.8-0.4c1.2-0.3,2.5-0.5,3.7-0.5
			c1.3,0,2.6,0,4,0.1c4.9,0.4,9.7,1.1,14.6,1.7c0.9,3.9,2,7.8,3.4,11.5c0,0.1,0,0.1,0.1,0.1c0.5,0.9,1.6,1.3,2.6,0.9
			c0.9-0.3,1.4-1.3,1.1-2.2c0,0,0-0.1-0.1-0.1l0,0c-1.4-3-2.6-6.1-3.6-9.2s-1.9-6.3-2.6-9.5c-0.3-1.4-0.5-2.9-0.8-4.3
			c4.2-2.3,8.6-4.4,12.7-7.1c1.8-1.2,3.5-2.5,5-4.1l0.7-0.4c0.5-0.2,0.9-0.4,1.4-0.6s1-0.3,1.5-0.4l0.8-0.1c0.3-0.1,0.5-0.1,0.8-0.1
			c0.5-0.1,1-0.1,1.6-0.1c0.5,0,1.1,0,1.6,0c1.1,0,2.2,0,3.3,0c1.1,0,2.2,0,3.3,0c1.1-0.1,2.2-0.2,3.3-0.4c2.2-0.4,4.2-1.2,6.1-2.3
			c0,0,0.1-0.1,0-0.1c0,0-0.1-0.1-0.1,0l0,0c-2,0.8-4.1,1.4-6.2,1.6s-4.3,0.3-6.4,0.1c-1.1-0.1-2.2-0.1-3.3-0.2c-0.6,0-1.1,0-1.7,0
			s-1.1,0.1-1.7,0.1c-0.3,0-0.6,0.1-0.8,0.1l-0.8,0.2c-0.5,0.1-0.9,0.3-1.4,0.4c0.4-0.7,0.7-1.5,0.9-2.3c0.1-0.6,0.2-1.3,0.2-1.9
			s0.1-1.2,0.1-1.8c0-2.4-0.3-4.9-0.7-7.3c-0.5-2.4-1-4.7-1.5-7.1c-0.5-2.3-0.8-4.7-0.9-7.1c-0.1-2.4,0-4.8,0.3-7.2
			C252,185.1,251.9,185,251.9,185L251.9,185z"/>
		<ellipse class="st35" cx="239.5" cy="256.9" rx="1.6" ry="1.5"/>
	</g>
	<g id="BLUE">
		<path id="BLUE-2" class="st36" d="M243,176.4c-0.1,0-0.1,0-0.1,0.1l0,0l0,0c0.1,1.9-0.2,3.8-0.8,5.7c-0.5,1.9-1.2,3.7-1.9,5.5
			c-1.4,3.6-2.9,7.2-4.2,10.9s-2.4,7.4-3.2,11.3c-0.6,3.1-1,6.2-1.1,9.3c-1.4-1.3-2.9-2.4-4.5-3.3c-0.2-0.1-0.4-0.2-0.7-0.3
			c0.7-1.2,1.3-2.4,1.5-3.8c0.3-1.5,0.2-3.1-0.1-4.6c-0.9-2.9-2.3-5.6-4.2-7.9c-1.8-2.4-3.8-4.6-5.8-6.8s-4-4.4-5.9-6.7
			c0,0-0.1,0-0.2,0c0,0-0.1,0.1,0,0.1c1.7,2.5,3.5,4.8,5.3,7.1s3.7,4.6,5.4,7c0.8,1.2,1.6,2.4,2.3,3.7c0.7,1.2,1.2,2.5,1.5,3.9
			c0.6,2.6,0.2,5.3-1.2,7.5c-0.5-0.2-1.1-0.3-1.6-0.4c-1.2-0.2-2.3-0.4-3.5-0.7c-4.6-1-9-2.7-13.2-5c-4.1-2.2-7.6-5.3-10.3-9.1
			c0,0-0.1-0.1-0.2,0c-0.1,0-0.1,0.1-0.1,0.1l0,0l0,0c2.4,4.1,5.8,7.5,9.9,9.9c4.1,2.6,8.6,4.5,13.3,5.8c1.2,0.3,2.4,0.6,3.6,0.8
			c1.1,0.2,2.1,0.6,3,1.1c1.9,1.1,3.6,2.6,5.1,4.3s2.7,3.5,3.8,5.4c0.5,0.9,1,1.9,1.4,2.9c1,2.5,1.2,6,2.2,10
			c-2.9-0.7-5.8-1.1-8.8-1.3c-2-0.1-3.9-0.2-5.8-0.2c0-0.1,0-0.3-0.1-0.4c-0.1-0.5-0.2-0.9-0.3-1.3c-0.2-0.9-0.5-1.7-0.9-2.5
			c-0.6-1.7-1.4-3.3-2.3-4.8c-0.9-1.6-2-3-3.3-4.3c-1.2-1.4-2.8-2.5-4.5-3.2c-0.1,0-0.1,0-0.2,0.1c0,0.1,0,0.1,0.1,0.1l0,0
			c1.6,0.9,2.9,2,4,3.5c1.1,1.4,2,2.9,2.8,4.4c0.9,1.5,1.6,3,2.3,4.6c0.3,0.8,0.5,1.6,0.8,2.4c0.1,0.4,0.2,0.9,0.2,1.4
			c-1.3-0.1-2.7-0.3-4-0.6c-1.7-0.4-3.4-1.1-4.9-2c-0.8-0.5-1.5-0.9-2.3-1.5c-0.8-0.5-1.6-1-2.3-1.5c-1.5-1.1-2.9-2.2-4.4-3.4
			c-0.7-0.6-1.5-1.2-2.3-1.7s-1.7-0.9-2.6-1.2c-0.1,0-0.2,0-0.2,0.1s0,0.2,0.1,0.2l0,0l0,0c0.9,0.3,1.7,0.8,2.5,1.3
			c0.7,0.5,1.4,1.1,2.1,1.7c1.4,1.2,2.7,2.5,4.1,3.7c0.7,0.6,1.3,1.3,2,1.9c0.2,0.2,0.3,0.3,0.5,0.5l0.6,0.4
			c0.4,0.3,0.8,0.6,1.1,0.8c1.7,1.1,3.5,1.9,5.3,2.4c1.3,0.4,2.6,0.7,4,0.8c-2.3,2.1-4.9,3.9-7.6,5.4c-3.1,1.8-6.4,3-10,3.7
			c-1.8,0.3-3.6,0.3-5.3,0.1c-1.8-0.2-3.5-0.7-5.1-1.4s-3.1-1.6-4.5-2.7l-1-0.8c-0.3-0.3-0.6-0.6-1-0.9l-0.5-0.4l-0.4-0.5l-0.9-1
			l0,0c0,0-0.1,0-0.2,0v0.1l0,0c1.1,1.4,2.3,2.7,3.6,3.9c1.4,1.2,2.9,2.2,4.5,3c3.4,1.5,7.2,2,10.9,1.4s7.2-1.7,10.4-3.5
			c3.2-1.7,6.1-3.8,8.8-6.2h0.1c1.9,0.2,3.8,0.3,5.7,0.5c3.3,0.3,6.5,0.8,9.7,1.6c1.2,4.5,2.7,8.8,4.5,13c0.4,0.9,1.4,1.3,2.3,0.9
			c0.8-0.3,1.3-1.2,1-2v-0.1l0,0c-4.6-10.1-6.7-22.6-7.9-25.5c-0.1-0.3-0.3-0.6-0.5-0.9c1.1-0.6,2.1-1.2,3.1-1.9
			c1.3-0.8,2.5-1.8,3.6-2.7c0.8-0.7,1.5-1.4,2.2-2.1c1.8-1.2,3.8-2.2,5.9-2.9c1.1-0.4,2.3-0.7,3.5-0.9c1.2-0.2,2.4-0.4,3.6-0.5
			s2.4-0.1,3.6,0c0.6,0,1.3,0,1.9,0s1.3-0.1,1.9-0.2c2.4-0.5,4.8-1.1,7.2-2c0.1,0,0.1-0.1,0.1-0.1l0,0l-0.1-0.1l0,0
			c-2.4,0.6-4.8,1.1-7.2,1.4c-0.6,0.1-1.2,0.1-1.8,0.1c-0.6,0-1.2,0-1.8-0.1c-1.3-0.1-2.5-0.1-3.8,0s-2.5,0.2-3.8,0.4
			c-1.2,0.2-2.5,0.5-3.7,0.9c-1.3,0.4-2.6,1-3.8,1.6c0.6-0.9,1-1.9,1.2-3c0.1-0.4,0.1-0.8,0.1-1.2v-0.6l-0.1-0.6
			c0-0.4-0.1-0.7-0.2-1.1c-0.1-0.4-0.1-0.7-0.2-1.1c-0.3-1.4-0.7-2.8-1.2-4.1c-0.9-2.7-1.9-5.4-3-8.1c0-0.1-0.1-0.1-0.1-0.1
			c-0.1,0-0.1,0.1-0.1,0.1l0,0c0.9,2.7,1.7,5.4,2.4,8.2c0.4,1.4,0.7,2.8,0.9,4.1c0.3,1.3,0.4,2.7,0.2,4c-0.3,1.3-0.9,2.5-1.8,3.6
			c-0.9,1.1-1.9,2.2-2.9,3.1c-2,1.7-4.1,3.2-6.3,4.6c-0.2-0.4-0.5-0.8-0.7-1.1c-1.3-1.9-2.7-3.7-4.3-5.4c0-1.6,0.1-3.2,0.2-4.8
			c0.2-1.9,0.4-3.8,0.8-5.7c0.7-3.8,1.6-7.5,2.8-11.2s2.5-7.4,3.8-11c0.6-1.8,1.2-3.7,1.7-5.6s0.7-3.8,0.6-5.8
			C243.1,176.5,243.1,176.5,243,176.4z"/>
		<ellipse class="st37" cx="245.6" cy="255.2" rx="1.5" ry="1.4"/>
	</g>
</g>
<g>
	<path class="st38" d="M332.9,301.2c-0.3,0.9-0.7,1.8-1.2,2.5c-0.3,0.4,0.1,2.8-2.1,3.5s-1.7,0-2.6,0.4c-2.4,1.2-5.1,1.5-7.7,0.9
		c-4.1-0.9-14.1-2.3-15.7-10.6C303.3,296.6,333.7,297.3,332.9,301.2z"/>
	<path class="st39" d="M329.3,299c-2.1,0.5-4.3,0.9-6.4,1c-2.2,0.2-4.3,0.2-6.5,0.2s-4.3-0.1-6.5-0.3c-1.1-0.1-2.2-0.2-3.2-0.4
		c-0.5-0.1-1.1-0.2-1.6-0.4c-0.3-0.1-0.5-0.2-0.8-0.3c-0.2-0.1-0.4-0.3-0.6-0.6c0.1,0.2,0.3,0.4,0.6,0.5c0.2,0.1,0.5,0.2,0.8,0.3
		c0.5,0.1,1.1,0.2,1.6,0.3c1.1,0.1,2.1,0.2,3.2,0.3c2.2,0.1,4.3,0.2,6.5,0.1c2.1,0,4.3,0,6.5-0.1c1.1,0,2.2-0.1,3.2-0.2
		S328.2,299.2,329.3,299z"/>
	<path class="st39" d="M332.4,300.2c-2.3,0.6-4.7,1-7.1,1.3s-4.8,0.4-7.2,0.5c-2.4,0.1-4.8,0-7.2-0.1c-1.2-0.1-2.4-0.3-3.6-0.6
		c-0.6-0.1-1.2-0.3-1.7-0.6c-0.6-0.2-1.1-0.6-1.4-1.1c0.4,0.5,0.9,0.8,1.4,1c0.6,0.2,1.1,0.4,1.7,0.5c1.2,0.2,2.4,0.3,3.6,0.4
		c2.4,0.1,4.8,0.1,7.2,0s4.8-0.2,7.2-0.4c1.2-0.1,2.4-0.2,3.6-0.3S331.3,300.5,332.4,300.2z"/>
	<path class="st39" d="M332.7,301.8c-2.3,0.6-4.6,1-6.9,1.2c-2.3,0.3-4.7,0.4-7,0.5c-2.4,0.1-4.7,0.1-7.1-0.1
		c-1.2-0.1-2.3-0.3-3.5-0.5c-0.6-0.1-1.1-0.3-1.7-0.5s-1-0.5-1.4-1c0.4,0.4,0.9,0.8,1.4,0.9c0.6,0.2,1.1,0.3,1.7,0.4
		c1.2,0.2,2.3,0.3,3.5,0.3c2.3,0.1,4.7,0.1,7,0s4.7-0.2,7-0.4c1.2-0.1,2.3-0.2,3.5-0.3C330.4,302.2,331.5,302,332.7,301.8z"/>
	<path class="st39" d="M331.7,303.7c-2,0.6-4.1,1-6.2,1.3s-4.2,0.5-6.4,0.6c-2.1,0.1-4.3,0-6.4-0.2c-1.1-0.1-2.1-0.3-3.2-0.6
		c-1-0.3-2-0.7-2.8-1.4c0.9,0.6,1.8,1,2.9,1.2c1,0.2,2.1,0.4,3.1,0.4c2.1,0.1,4.2,0.2,6.3,0c2.1-0.1,4.2-0.3,6.3-0.5
		c1.1-0.1,2.1-0.2,3.2-0.4C329.6,304.1,330.6,303.9,331.7,303.7z"/>
	<path class="st39" d="M331.4,305.1c-1.8,0.6-3.6,1.1-5.4,1.4s-3.7,0.6-5.6,0.7s-3.8,0.1-5.7-0.2c-1.9-0.2-3.7-0.8-5.3-1.8l1.3,0.5
		c0.4,0.1,0.9,0.3,1.3,0.4l1.4,0.3l1.4,0.2c1.9,0.2,3.7,0.2,5.6,0c1.9-0.1,3.7-0.3,5.6-0.6C327.8,305.9,329.6,305.5,331.4,305.1z"/>
	<path class="st39" d="M331,306.2c-1.2,0.4-2.3,0.8-3.5,1.1c-1.2,0.4-2.4,0.6-3.7,0.8c-1.2,0.2-2.5,0.3-3.8,0.2
		c-1.3,0-2.5-0.2-3.7-0.6c1.2,0.2,2.5,0.2,3.7,0.2s2.5-0.2,3.7-0.4c1.2-0.2,2.4-0.5,3.6-0.7C328.6,306.6,329.8,306.3,331,306.2z"/>
	<path id="BG-2" class="st40" d="M362,291.8c2.1-1,6.9,1.6,12.8-1.3c6-2.9,6.6-5,6.5-7.5c0,0,3.9-3.4,0.7-12.8
		c-3.7-10.7-6.6-12.3-7.3-12.3c-0.8,0-0.8,0.2-1,0s-0.1-1-0.6-1.6c-0.5-0.6-10.3-8.1-18.1-9.7c-13.9-2.8-13.9,0.1-15.1-0.7
		c-0.6-0.4-5.4-1.9-10.7-0.3c-5.2,1.6-3.6,1.7-4.7,1.7c-1.2,0-6.4,2-7.4,2.9s-0.9,1.5-1.9,1.4c-2-0.2-6.7,3.7-9.1,7.5
		c-2.1,0.9-2.9,5.3-4.2,6.1c-4.2,2.9-3.8,6.3-4.4,7.5s-4.9,8.8-2.6,12.9c0,0,0.8,9.8,5,11.4s9.7,2.9,14.4,1.6
		c4.7-1.3,10.7,2.4,13,2.6s7.6,0,11.1,2.2s14.8,4.4,20.6-0.5C366.3,296.8,362,291.8,362,291.8z"/>
	<g id="LINES-2">
		<path class="st41" d="M324.6,253.6c-0.2-1.4-0.9-2.3-3.3-2.3s-3.8,1.7-4.6,1.2c-0.8-0.5-0.4-0.9-1-0.9"/>
		<path class="st41" d="M364.3,284.2c-1.4,0.8-4.6,1.9-6.1,1.7"/>
		<path class="st41" d="M303.6,291.1c0.8-0.1,1.6,0.3,3.3,0.8c5.2,1.5,6.5,0.2,6.5,0.2"/>
		<path class="st41" d="M316.5,297.3c-1.6-1-5.3-2.1-1.8-8.5"/>
		<path class="st41" d="M319.7,296.5c1.2-0.8,2.4-2.9,3.1-2.8"/>
		<path class="st41" d="M338.8,297.9c0.1-1.3,0.6-4.4-0.1-6"/>
		<path class="st41" d="M311.7,287.1c1,0.5,2.1,0.9,3.2,1.1c0.5,0.1,1.1,0.2,1.6,0.2c0.3,0,0.5,0,0.8,0h0.8c1.2,0,2.3,0.1,3.5,0.2
			c0.6,0,1.1,0.1,1.7,0.1c0.5,0.1,1.1-0.1,1.5-0.4c-0.1,0.3-0.3,0.6-0.6,0.7c-0.3,0.2-0.6,0.3-0.9,0.4c-0.6,0.2-1.2,0.3-1.8,0.3
			c-1.2,0.1-2.3,0.1-3.4,0.1h-0.9c-0.3,0-0.6,0-0.9-0.1c-0.6-0.1-1.2-0.2-1.8-0.4C313.4,288.9,312.4,288.1,311.7,287.1z"/>
		<path class="st41" d="M323.8,298.7c1.1-0.1,2.2-0.1,3.3-0.2c0.5,0,1-0.1,1.4-0.3l0.2-0.2l0.3-0.3c0.3-0.2,0.5-0.4,0.8-0.5
			c0.2-0.1,0.4-0.1,0.6-0.1c0.3,0,0.6,0.1,0.8,0.3c0.2,0.2,0.4,0.3,0.6,0.5c0.4,0.3,0.8,0.5,1.3,0.7c0.2,0.1,0.4,0.1,0.6,0.2
			c0.2,0,0.4,0,0.5,0c0.2-0.1,0.4-0.1,0.5-0.3c0.3-0.2,0.5-0.3,0.8-0.5c0.1-0.1,0.3-0.1,0.4-0.1s0.2,0,0.3,0h0.1h0.1l0.4,0.1
			c0.3,0.1,0.5,0.2,0.7,0.2c0.5,0.1,1,0.2,1.4,0.3c0.2,0,0.4,0,0.7,0c0.1,0,0.2,0,0.3-0.1c0.2-0.1,0.3-0.1,0.5-0.1
			c0.4-0.1,0.7-0.1,1.1,0c0.3,0.1,0.6,0.2,0.9,0.4c0.5,0.3,0.9,0.7,1.3,1.1l0.1,0.1c0,0,0.1,0,0.1,0.1c0.1,0,0.2,0.1,0.3,0.1
			c0.2,0.1,0.5,0.1,0.8,0.1c0.5,0,1.1,0,1.7,0.1c0.3,0,0.6,0.1,0.9,0.2s0.5,0.3,0.7,0.5c-0.5-0.3-1-0.4-1.5-0.3
			c-0.5,0-1.1,0.1-1.7,0.2c-0.3,0-0.6,0-0.9,0c-0.2,0-0.3-0.1-0.5-0.1l-0.3-0.1c-0.1,0-0.1-0.1-0.2-0.1c-0.5-0.3-0.9-0.6-1.3-0.9
			c-0.3-0.2-0.8-0.3-1.2-0.2c-0.1,0-0.2,0.1-0.3,0.1c-0.2,0.1-0.3,0.1-0.5,0.2c-0.3,0.1-0.7,0.1-1,0.1c-0.6,0-1.2-0.1-1.8-0.3
			c-0.3-0.1-0.6-0.2-0.8-0.3l-0.4-0.1l0,0l0,0l0,0l0,0c-0.1,0-0.3,0.2-0.6,0.4c-0.3,0.2-0.6,0.3-1,0.4s-0.7,0.1-1.1,0.1
			c-0.3,0-0.7-0.1-1-0.3c-0.6-0.3-1.1-0.6-1.5-1c-0.2-0.2-0.4-0.4-0.6-0.6c0,0,0.1,0,0,0s-0.1,0-0.2,0c-0.2,0.1-0.4,0.2-0.6,0.3
			l-0.3,0.2c-0.1,0.1-0.3,0.2-0.4,0.3c-0.3,0.1-0.6,0.2-1,0.2c-0.3,0-0.6,0-0.9,0C326,299.1,324.9,299,323.8,298.7z"/>
		<path class="st41" d="M352.8,289.1c0.4,0.7,0.9,1.4,1.4,2c0.3,0.3,0.6,0.5,0.9,0.7c0.4,0.2,0.8,0.5,1.1,0.9
			c0.3,0.4,0.5,0.9,0.5,1.4s0,0.9,0,1.3c0,0.9-0.1,1.7-0.2,2.6s-0.4,1.7-0.7,2.6c-0.2,0.5-0.5,0.9-0.9,1.2c-0.1,0.1-0.2,0.1-0.3,0.2
			l-0.3,0.2l-0.5,0.4c-0.7,0.5-1.6,0.9-2.4,1.2c-0.9,0.2-1.8,0.3-2.6,0.2c0.8-0.2,1.6-0.4,2.4-0.8c0.7-0.4,1.4-0.8,2-1.4l0.5-0.4
			l0.3-0.2c0.1-0.1,0.1-0.1,0.2-0.2c0.2-0.2,0.4-0.5,0.5-0.8c0.3-0.7,0.5-1.5,0.5-2.2c0.1-0.8,0.2-1.6,0.3-2.4
			c0.1-0.7,0.1-1.4-0.1-2.1c-0.2-0.3-0.4-0.6-0.7-0.8c-0.4-0.3-0.7-0.6-1-1C353.3,290.8,353,290,352.8,289.1z"/>
		<path class="st41" d="M307.8,294.5c-1,0.5-2.1,0.6-3.2,0.4s-2.1-0.6-3-1.3c-0.2-0.1-0.3-0.2-0.5-0.3c-0.1-0.1-0.3-0.1-0.4-0.1
			c-0.5,0-1.1,0-1.6-0.1s-1.1-0.2-1.6-0.4c-0.5-0.2-1-0.5-1.3-0.9c0.5,0.2,1,0.3,1.4,0.3c0.5,0,1,0,1.4,0c0.5,0,1-0.1,1.4-0.2
			s0.8,0,1.1,0.1c0.3,0.1,0.5,0.3,0.8,0.4c0.8,0.5,1.6,1,2.5,1.4C305.8,294.2,306.8,294.4,307.8,294.5z"/>
		<path class="st41" d="M295.4,288.7c0.6,0,1.1-0.2,1.6-0.4c0.2-0.1,0.5-0.2,0.7-0.4l0.3-0.2c0.2-0.1,0.3-0.2,0.5-0.3
			c0.4-0.1,0.8-0.2,1.1-0.1c0.3,0,0.6,0.1,0.9,0.1c0.5,0.1,1.1,0.1,1.7,0c-0.3,0.6-0.9,1-1.6,1.1c-0.3,0.1-0.6,0.1-0.9,0.1
			c-0.2,0-0.4,0-0.6,0.1c0.1,0-0.2,0.1-0.3,0.2c-0.2,0.1-0.3,0.1-0.5,0.2c-0.3,0.1-0.6,0.2-1,0.2c-0.3,0-0.7,0-1-0.1
			C295.9,289.2,295.6,289,295.4,288.7z"/>
		<path class="st41" d="M301.7,282.1c-0.3,0.2-0.8,0.3-1.1,0.2c-0.4-0.1-0.7-0.2-0.7-0.1l0,0c0,0,0,0-0.1,0.1
			c-0.2,0.1-0.3,0.2-0.5,0.3c-0.4,0.2-0.9,0.2-1.3,0.1s-0.8-0.3-1.2-0.6c-0.1-0.1-0.3-0.3-0.4-0.3v-0.1l0,0c0.1,0,0.2,0,0.2,0
			s0.1,0,0,0h-0.1l-0.2,0.1c-0.1,0-0.2,0.1-0.3,0.1c-0.2,0-0.4,0-0.6,0c-0.4,0-0.7-0.1-1.1-0.2c0.3-0.2,0.6-0.3,0.9-0.5
			c0.1-0.1,0.3-0.1,0.4-0.2l0.2-0.1c0,0,0,0,0.1-0.1l0,0c0,0,0.1-0.1,0.2-0.1c0.2-0.1,0.5-0.1,0.7,0c0.1,0,0.1,0.1,0.2,0.1l0.1,0.1
			l0.4,0.3c0.2,0.1,0.4,0.2,0.6,0.2s0.4,0,0.6,0c0.1,0,0.3-0.1,0.4-0.1c0,0,0.2-0.1,0.3-0.1c0.2,0,0.3,0,0.5,0
			c0.3,0,0.5,0.1,0.7,0.3c0.1,0.1,0.2,0.2,0.3,0.3C301.2,281.9,301.4,282,301.7,282.1z"/>
		<path class="st41" d="M343.3,268.3c-0.8,0.1-2.2-0.5-3.8,0c-1.2,0.3-2.4,0.9-3.3,1.8"/>
		<path class="st41" d="M327.8,251c-1.7,1.1-4.2,2.4-5,7"/>
		<path class="st41" d="M306.1,259.1c1-0.6,2.1-0.8,2.9-1.3c0.2-0.1,0.3-0.3,0.5-0.5l0.6-0.6c0.4-0.4,0.8-0.7,1.3-1.1
			c0.5-0.4,1-0.7,1.6-0.9c0.2-0.1,0.4-0.1,0.6-0.1c0.3,0,0.6,0,0.8,0.2c0.1,0.1,0.3,0.2,0.4,0.3s0.1,0.2,0.2,0.3s0.1,0.1,0.1,0.1
			c-0.1,0-0.1,0-0.2,0.1l0,0l0,0v-0.1c0.2-0.2,0.5-0.4,0.8-0.6c0.5-0.3,1-0.5,1.6-0.6c-0.4,0.4-0.8,0.8-1.1,1.2
			c-0.2,0.2-0.3,0.3-0.4,0.5l0,0l-0.1,0.1c0,0.1-0.1,0.1-0.2,0.2c-0.2,0.1-0.4,0.2-0.6,0.2s-0.5-0.1-0.7-0.2
			c-0.1-0.1-0.3-0.2-0.4-0.3c-0.1-0.1-0.2-0.2-0.2-0.2c0.2,0.1,0,0-0.2,0.1c-0.4,0.2-0.8,0.5-1.2,0.7c-0.4,0.3-0.8,0.6-1.2,0.9
			l-0.6,0.5c-0.2,0.2-0.5,0.4-0.8,0.6C308.4,259.2,307.2,259.3,306.1,259.1z"/>
		<path class="st41" d="M311.2,289.5c-2.4-1.5-3.2-2.2-3.4-4.5c-0.2-2.3-0.3-5.7,0.9-6.6"/>
		<path class="st41" d="M314.9,286.9c-1.4-1.7-3-3.9-2.3-4.8"/>
		<path class="st41" d="M314.3,271.1c0.1,0.5,0.3,0.9,0.4,1.3c0.2,0.5,0.2,1,0.1,1.5c-0.2,0.5-0.6,1-1.1,1.3s-1,0.5-1.5,0.6
			c-0.3,0.1-0.7,0-1,0c-0.3-0.1-0.6-0.3-0.9-0.5c-0.4-0.4-0.7-0.8-1-1.3c-0.3-0.4-0.4-0.9-0.6-1.3s-0.4-0.8-0.6-1.2
			c-0.2-0.4-0.4-0.8-0.7-1.1c-0.2-0.3-0.4-0.5-0.7-0.7c-0.1,0-0.2,0-0.3,0c-0.1,0-0.2,0.1-0.3,0.2c-0.2,0.3-0.3,0.6-0.4,1
			c-0.1,1-0.4,1.9-0.8,2.8s-0.9,1.7-1.6,2.4c0.4-0.8,0.7-1.7,0.9-2.6c0.2-0.9,0.3-1.8,0.3-2.7c0-0.6,0.2-1.2,0.5-1.6
			c0.2-0.3,0.5-0.5,0.9-0.6s0.8-0.1,1.1,0c0.6,0.2,1.1,0.6,1.4,1.1c0.3,0.4,0.6,0.8,0.8,1.3c0.2,0.4,0.4,0.9,0.6,1.3
			s0.4,0.8,0.6,1.2c0.2,0.4,0.4,0.7,0.6,1c0.2,0.2,0.5,0.3,0.8,0.3c0.4,0,0.8-0.1,1.2-0.3c0.4-0.1,0.7-0.4,0.9-0.7
			C314.4,273,314.2,272,314.3,271.1z"/>
		<path class="st41" d="M350,259.1c-1.3,1.4-1.3-1.2-3.7-1.1s-4.3,0.3-5.9,1.7"/>
		<path class="st41" d="M345.8,247.6c-1.5,0.7-4,1.9-4.8,3.4"/>
		<path class="st41" d="M361.3,269.5c0.5,0.2,1,0.1,1.4-0.1c0.2-0.1,0.4-0.3,0.6-0.4c0.2-0.2,0.4-0.4,0.7-0.6
			c0.5-0.2,1.1-0.4,1.6-0.5s1.1-0.2,1.6-0.3c0.6-0.1,1.3,0,1.8,0.2c0.5,0.3,1,0.6,1.4,1c0.3,0.3,0.6,0.6,1,0.7c0.3,0.1,0.7,0,1-0.2
			c0.4-0.2,0.9-0.4,1.4-0.7c0.3-0.1,0.6-0.2,0.9-0.3c0.4-0.1,0.8-0.1,1.2,0c0.2,0.1,0.4,0.2,0.5,0.4c0.1,0.1,0.2,0.2,0.3,0.3
			c0.2,0.2,0.3,0.4,0.5,0.6c0.3,0.4,0.6,0.9,0.9,1.3s0.6,0.8,0.9,1.1c0.3,0.3,0.4,0.5,0.5,0.6s0.3,0.2,0.4,0.3
			c0.4,0,0.9-0.2,1.2-0.5c0.4-0.3,0.8-0.6,1.2-1c-0.3,0.5-0.6,0.9-0.9,1.3c-0.4,0.5-0.9,0.8-1.5,0.9c-0.8,0-1.3-0.7-1.5-0.9
			c-0.4-0.3-0.8-0.7-1.2-1.2l-1-1.2c-0.2-0.2-0.3-0.4-0.5-0.5c-0.1-0.1-0.2-0.2-0.2-0.2s-0.1,0-0.1-0.1c-0.3,0-0.6,0.1-0.9,0.3
			c-0.4,0.2-0.9,0.5-1.4,0.7c-0.3,0.1-0.6,0.2-0.9,0.3c-0.4,0.1-0.8,0-1.1-0.1c-0.6-0.2-1.1-0.6-1.5-1.1c-0.3-0.3-0.6-0.6-1-0.9
			c-0.4-0.2-0.8-0.3-1.2-0.3c-0.5,0-1,0-1.5,0.1c-0.5,0-1,0.1-1.4,0.2c-0.2,0.1-0.4,0.2-0.6,0.3c-0.2,0.2-0.5,0.3-0.8,0.4
			C362.4,269.9,361.8,269.8,361.3,269.5z"/>
		<path class="st41" d="M376.8,272.8c-2,0.9-2.1,1.6-2.6,1.9c0.9-0.3,1.8,0.1,2.3,0.8c1,1.3,2.9,1.9,2.6,3.4"/>
		<path class="st41" d="M375.6,278.3c-0.9,1.8-4.2,3.8-5.1,3.3s-0.3,0.5-0.3,0.5"/>
		<path class="st41" d="M351,268.3c-0.6,2.3-1.6,5.4-2.7,6"/>
		<path class="st41" d="M353.7,254.1c-0.1,1.9-0.1,3.7,0,5.6c0.3,1.7-0.1,4.6-1.1,5.6"/>
		<path class="st41" d="M311.7,258.9c0.2,1.2,0.8,2.3,1.7,3.2"/>
		<path class="st41" d="M306.1,262c-1.8,1.6-4.8,5.1-3.2,6.3"/>
		<path class="st41" d="M358.6,282.1c-0.6,0.7-1,2.2-0.5,2.9c0.3,0.4,0.2,1-0.2,1.3l0,0l0,0"/>
		<path class="st41" d="M353.2,295c-0.7,1-1.9,1.6-3.1,1.6"/>
		<path class="st41" d="M348.2,295.2c0.6-0.6,1.1-1.3,1.5-2.1c0.3-0.7,0.5-1.4,0.4-2.1c0-0.2,0-0.4-0.1-0.5c0-0.2-0.1-0.4-0.1-0.6
			c-0.1-0.4-0.2-0.8-0.3-1.2c-0.3-0.8-0.6-1.6-1-2.3c0.9,0.4,1.6,1.1,2.1,1.9c0.3,0.4,0.5,0.8,0.6,1.3c0.1,0.2,0.1,0.4,0.2,0.7
			c0.1,0.2,0.1,0.5,0.1,0.8c0.1,1-0.3,2.1-1,2.8C350,294.4,349.1,294.9,348.2,295.2z"/>
		<path class="st41" d="M331,291.9c-3-0.5-8.5-2.1-5.6-7.2"/>
		<path class="st41" d="M335.4,247c0.3,0.6,0.3,1.4,0.6,1.9c0.1,0.1,0.1,0.2,0.2,0.2s0.2,0,0.3,0l1-0.2c0.8-0.2,1.6-0.2,2.3,0
			c0.4,0.1,0.9,0.3,1.2,0.6c0.3,0.3,0.6,0.7,0.7,1.2c0.1,0.2,0.1,0.3,0.1,0.5l0.1,0.5c0.1,0.3,0.2,0.6,0.3,0.8
			c0.3,0.6,0.6,1.1,1,1.6c0.5,0.6,0.8,1.3,0.9,2c0.1,0.7,0,1.4-0.1,2.1c-0.1-0.7-0.3-1.3-0.6-1.9c-0.1-0.3-0.2-0.6-0.4-0.8
			c-0.2-0.2-0.4-0.4-0.6-0.6c-0.6-0.5-1.1-1-1.4-1.7c-0.2-0.3-0.4-0.7-0.5-1c-0.1-0.2-0.1-0.3-0.2-0.5c0-0.2-0.1-0.4-0.1-0.5
			c-0.1-0.4-0.5-0.8-0.9-0.9c-0.6-0.2-1.2-0.2-1.8-0.2c-0.3,0-0.7,0-1.1,0c-0.3,0-0.5-0.1-0.7-0.2c-0.2-0.2-0.3-0.4-0.4-0.6
			C335.2,248.3,335.3,247.6,335.4,247z"/>
		<path class="st41" d="M363.9,289c2.3,0,4.7,0,5.7-0.8s3.8-2.5,2.7-4.3"/>
		<path class="st41" d="M379.1,286.4c-1.4,0.7-1.7,0.3-2.4,0.7c-0.7,0.4-3.2,4.2-5.8,4.6"/>
		<path class="st41" d="M368.2,253.6c0.2,0.8,1,1.2,1.8,2.2s2.1,3.1,0.8,4.3"/>
		<path class="st41" d="M353.2,299c-1.1-1.1-2.2-2.3-3.1-2.5c-0.6-0.1-1.2-0.1-1.8,0"/>
		<path class="st41" d="M347.4,293.8c0.8,2.1,1.6,1.9,0.8,2.8c-0.9,0.8-1.9,1.6-3,2.2"/>
		<path class="st41" d="M353.8,248c0.6,0.7,2.6,1.7,0,0.8c-2.2-0.8-4.5,0.9-4.5,0.9"/>
		<path class="st41" d="M357.9,248.4c0.3,0.9,0.1,1.7,1.5,1.9s4.3,1.4,4.9,3.2c0.7,1.8,1,2.4,0,2.7"/>
		<path class="st41" d="M355.6,273.7c2.1,1,4.2,1.8,6.5,2.3c1.1,0.3,2.2,0.5,3.3,0.6c0.6,0.1,1.2,0.1,1.8,0.3c0.4,0.1,0.7,0.2,1,0.4
			c0.3,0.2,0.6,0.5,0.8,0.9c0.1,0.2,0.2,0.3,0.2,0.5l0.1,0.4c0.1,0.2,0.2,0.5,0.3,0.7c0.2,0.5,0.5,0.9,0.8,1.4
			c0.5,0.9,1.3,1.6,2.2,2.1c0.1,0.1,0.2,0.1,0.3,0.1c0.2,0.1,0.4,0.1,0.6,0.1c0.1,0,0.3,0,0.4-0.1c0.6-0.1,1.2-0.2,1.7-0.2
			s1.2-0.1,1.7-0.2c0.3,0,0.6-0.1,0.8-0.2c0.3,0,0.6-0.2,0.8-0.3c-0.4,0.4-1,0.7-1.5,0.9c-0.6,0.2-1.1,0.4-1.7,0.5
			c-0.6,0.2-1.1,0.3-1.7,0.5c-0.1,0.1-0.3,0.1-0.4,0.1c-0.4,0.1-0.7,0.1-1.1,0c-0.2,0-0.3-0.1-0.5-0.1c-1.2-0.5-2.2-1.3-2.9-2.4
			c-0.4-0.5-0.7-1-0.9-1.6c-0.1-0.3-0.2-0.6-0.3-0.9l-0.1-0.4c-0.1-0.5-0.5-0.8-1-0.9s-1.1-0.2-1.6-0.3c-1.2-0.2-2.4-0.5-3.5-0.9
			C359.5,276.4,357.4,275.2,355.6,273.7z"/>
		<path class="st41" d="M316.5,293c2.2-0.2,4.4-0.1,6.6,0.3c1.1,0.2,2.2,0.4,3.2,0.7c0.3,0.1,0.6,0.2,0.8,0.2c0.2,0,0.4,0.1,0.6,0.1
			c0.5,0,1-0.1,1.4-0.2c1-0.3,2-0.6,3-1c0.5-0.2,1-0.4,1.6-0.5l0.4-0.1c0.2,0,0.3,0,0.5-0.1h0.8c1,0,2-0.2,2.9-0.7s1.7-1.2,2.1-2.2
			c-0.2,1.1-0.8,2.1-1.7,2.7c-1,0.7-2.1,1.1-3.2,1.2l-0.8,0.1c-0.1,0-0.2,0-0.3,0.1l-0.3,0.1c-0.5,0.2-1,0.4-1.4,0.6
			c-1,0.4-2.1,0.8-3.2,1.1c-0.6,0.1-1.2,0.2-1.8,0.2c-0.3,0-0.7-0.1-1-0.2s-0.5-0.2-0.8-0.3c-1-0.3-2-0.6-3.1-0.9
			C320.7,293.8,318.6,293.3,316.5,293z"/>
		<path class="st41" d="M307,274.4c0.5,0.6,1,1.4,1.3,2.1s0.7,1.4,1.1,2.1c0.1,0.2,0.2,0.3,0.3,0.4c0.1,0.1,0.2,0.2,0.4,0.4l0.9,0.9
			c0.3,0.3,0.5,0.5,0.8,0.7s0.6,0.3,0.9,0.4c1.3,0.4,2.8-0.4,4.3-1s3-1.4,3.5-3c0,0.9-0.3,1.7-1,2.3c-0.6,0.6-1.3,1.2-2,1.6
			c-0.7,0.5-1.5,0.9-2.3,1.2c-0.9,0.4-1.9,0.4-2.9,0.2c-0.9-0.3-1.7-0.8-2.4-1.6l-0.8-1c-0.2-0.2-0.3-0.3-0.4-0.5s-0.2-0.4-0.3-0.6
			c-0.3-0.8-0.6-1.6-0.7-2.4C307.4,275.9,307.3,275.1,307,274.4z"/>
		<path class="st41" d="M357.1,253.6c0.7,0.3,1.3,0.8,1.9,1.3s1.1,1.2,1.4,1.9s0.5,1.4,0.7,2.2c0.2,0.7,0.4,1.3,0.6,2.1
			c0.1,0.4,0.1,0.9,0.1,1.3c0,0.5-0.2,0.9-0.5,1.3c-0.5,0.7-1.2,1.2-2,1.6c-0.7,0.4-1.4,0.7-2.2,0.9c-0.8,0.2-1.5,0.3-2,0.8
			c0.2-0.4,0.4-0.7,0.8-0.9c0.3-0.2,0.7-0.4,1-0.6c0.6-0.4,1.3-0.7,1.8-1.2c0.6-0.3,1-0.8,1.4-1.3c0.3-0.5,0.3-1.1,0.1-1.6
			c-0.1-0.7-0.4-1.4-0.5-2.2c-0.1-0.7-0.2-1.4-0.4-2.1C359.1,255.9,358.1,254.8,357.1,253.6z"/>
		<path class="st41" d="M344.1,251.2c0.1,0.5,0.3,1,0.5,1.4c0.2,0.5,0.4,0.9,0.7,1.3c0.1,0.2,0.3,0.3,0.5,0.4c0.2,0,0.4,0,0.6-0.1
			c0.4-0.3,0.9-0.5,1.3-0.8c0.9-0.6,1.9-1.1,2.9-1.4c0.5-0.2,1.1-0.3,1.7-0.4c0.6,0,1.2,0,1.8,0.2c1,0.3,2,0.7,3,1.1
			c0.2,0.1,0.4,0.2,0.6,0.2h0.1l0,0h0.1h0.4c0.6,0,1.2,0,1.8,0.2c1,0.4,2,0.9,2.9,1.5c0.9,0.5,1.8,1,2.8,1.5
			c0.3,0.1,0.5,0.3,0.7,0.5c0.3,0.2,0.6,0.5,0.7,0.9s0.1,0.9-0.1,1.3c-0.1,0.3-0.3,0.6-0.5,0.8c-0.4,0.4-0.7,0.8-1.2,1.2
			c-0.2,0.2-0.4,0.4-0.6,0.5l-0.1,0.1l0,0c0.1-0.2,0.2-0.4,0.1-0.6c0-0.1-0.1-0.2-0.2-0.3c-0.1-0.1-0.1-0.1-0.2-0.1l0,0h0.2
			c0.6-0.1,1.2-0.1,1.7,0c0.3,0,0.7,0.1,1,0.2s0.5,0.2,0.8,0.4c0.1,0.1,0.3,0.2,0.4,0.2s0.2-0.1,0.3-0.2c0.4-0.3,0.7-0.7,1.1-1.1
			c0.3-0.3,0.6-0.5,1-0.6s0.7,0,1.1,0.1c0.5,0.2,1.1,0.5,1.5,0.8c0.9,0.6,1.6,1.4,2.3,2.3c0.2,0.2,0.3,0.3,0.5,0.4s0.4,0.3,0.7,0.5
			c0.4,0.3,0.8,0.6,1.2,1c0.4,0.3,0.8,0.8,1.1,1.2c0,0.1,0.1,0.2,0.2,0.2s0.2-0.1,0.3-0.2c0.2-0.2,0.3-0.4,0.5-0.6
			c-0.1,0.2-0.2,0.5-0.4,0.7c-0.1,0.1-0.2,0.2-0.3,0.3c-0.2,0.1-0.4-0.1-0.4-0.2c-0.3-0.4-0.7-0.7-1.1-1s-0.9-0.6-1.3-0.9
			c-0.2-0.1-0.4-0.3-0.7-0.4c-0.3-0.1-0.5-0.3-0.7-0.5c-0.7-0.8-1.4-1.4-2.3-2c-0.4-0.2-0.9-0.4-1.3-0.6c-0.2-0.1-0.3-0.1-0.5,0
			c-0.1,0.1-0.3,0.2-0.3,0.3c-0.3,0.4-0.7,0.8-1.1,1.2c-0.1,0.1-0.3,0.2-0.4,0.3c-0.2,0.1-0.4,0.2-0.7,0.2c-0.4,0-0.7-0.1-1-0.3
			c-0.2-0.1-0.4-0.2-0.7-0.3c-0.2-0.1-0.4-0.1-0.6-0.1c-0.5,0-1,0-1.4,0.1h-0.2c-0.1,0-0.2,0-0.4,0c-0.1,0-0.2-0.1-0.3-0.1
			c-0.3-0.2-0.4-0.5-0.3-0.8c0-0.1,0.1-0.2,0.1-0.3l0.1-0.1l0.2-0.1c0.2-0.2,0.4-0.3,0.6-0.5c0.4-0.3,0.7-0.7,1-1.1
			c0.1-0.2,0.2-0.3,0.3-0.5c0.1-0.1,0.1-0.3,0.1-0.2c-0.1-0.1-0.2-0.2-0.3-0.3c-0.2-0.1-0.4-0.3-0.6-0.4c-0.8-0.5-1.8-1-2.7-1.5
			c-0.5-0.3-1-0.6-1.3-0.8c-0.4-0.2-0.8-0.4-1.3-0.6c-0.4-0.1-0.9-0.2-1.3-0.2h-0.4h-0.1h-0.2c-0.1,0-0.2,0-0.3,0
			c-0.3-0.1-0.6-0.2-0.9-0.3c-0.9-0.5-1.9-0.9-2.9-1.2c-0.4-0.2-0.9-0.3-1.4-0.3s-1,0.1-1.4,0.2c-1,0.3-1.9,0.7-2.8,1.2
			c-0.5,0.2-0.9,0.5-1.4,0.7c-0.3,0.1-0.6,0.2-1,0.1c-0.3-0.1-0.5-0.3-0.7-0.6C344.5,253.3,344.2,252.3,344.1,251.2z"/>
		<path class="st41" d="M347.3,281.1c-0.1-0.2-0.2-0.4-0.3-0.6c-0.1-0.2-0.1-0.5,0-0.7c0.2-0.4,0.4-0.9,0.6-1.3
			c0.3-0.8,0.5-1.7,0.4-2.6c-0.1-1.8-0.6-3.6-1.2-5.2c-0.6-1.7-1.6-3.1-3-4.2c-0.7-0.5-1.5-0.8-2.3-1c-0.2-0.1-0.4-0.1-0.6-0.1
			s-0.5-0.1-0.8-0.1c-0.3-0.1-0.6-0.2-0.9-0.3l-0.1-0.1c-0.1-0.1-0.1-0.1-0.2-0.2c-0.1-0.2-0.2-0.4-0.2-0.6s0.1-0.3,0.1-0.5
			c0.1-0.1,0.1-0.2,0.2-0.3c0.2-0.2,0.4-0.4,0.6-0.5s0.3-0.3,0.3-0.3c0,0.2,0-0.1,0-0.2l0.1-0.3c0-0.2,0.1-0.4,0.1-0.6
			c0.1-0.8-0.1-1.5-0.6-2.2s-1.2-1.3-1.9-1.7c-0.8-0.5-1.5-1-2.4-1.4c-0.8-0.4-1.7-0.8-2.5-1.3c-0.5-0.2-0.9-0.6-1.3-1
			c-0.3-0.5-0.4-1-0.4-1.5c0-0.4-0.1-0.8-0.3-1.2c-0.2-0.4-0.5-0.7-0.9-0.9c-0.8-0.5-1.8-0.6-2.7-0.5c0.9-0.3,2-0.3,2.9,0.1
			c0.5,0.2,0.9,0.6,1.2,1c0.2,0.4,0.4,0.9,0.5,1.4c0,0.4,0.2,0.8,0.4,1.1c0.3,0.3,0.7,0.5,1,0.6c0.9,0.4,1.7,0.7,2.6,1.1
			s1.8,0.9,2.6,1.4c0.9,0.5,1.7,1.2,2.3,2c0.7,0.9,1,2,0.9,3.1c0,0.3-0.1,0.5-0.1,0.8l-0.1,0.3c0,0.2-0.1,0.3-0.1,0.5
			c-0.2,0.3-0.4,0.6-0.6,0.8c-0.2,0.1-0.3,0.3-0.4,0.4l0,0v-0.1c0-0.1,0-0.2-0.1-0.3c0,0,0-0.1-0.1-0.1l0,0c0.1,0.1,0.3,0.1,0.4,0.1
			c0.2,0,0.4,0.1,0.7,0.1c0.2,0,0.5,0.1,0.8,0.1c1,0.2,2,0.7,2.8,1.3c1.6,1.2,2.7,2.9,3.3,4.9c0.6,1.8,0.9,3.7,0.9,5.6
			c0,1-0.3,1.9-0.8,2.8c-0.3,0.4-0.6,0.8-0.8,1.2S347.2,280.6,347.3,281.1z"/>
		<path class="st41" d="M333.7,274.8c0.6-0.1,1.3-0.3,1.7-0.8c0.3-0.5,0.5-1.1,0.5-1.7v-1.9c0-0.6,0-1.2-0.1-1.8
			c-0.4-1.2-1-2.3-1.8-3.3c-0.7-1.1-1.5-2.1-2.3-3c-0.4-0.5-0.9-0.9-1.3-1.2c-0.2-0.2-0.5-0.3-0.7-0.4c-0.1,0-0.2-0.1-0.3-0.1
			l-0.5-0.1c-1.4-0.1-2.8-0.5-4.1-1.2c-0.2-0.1-0.3-0.2-0.5-0.3c-0.1-0.1-0.2-0.1-0.3-0.1c-0.3-0.1-0.5-0.2-0.8-0.2
			c-0.6-0.1-1.2-0.1-1.9-0.1c-0.6,0-1.2,0.1-1.8,0.2c-0.1,0-0.3,0.1-0.4,0.1L319,259c-0.1,0-0.1,0-0.1,0.1l-0.8,0.5
			c-1.1,0.7-2.2,1.4-3.3,2.1c-0.3,0.2-0.5,0.4-0.7,0.6s-0.4,0.4-0.6,0.6c-0.1,0.2-0.3,0.4-0.3,0.6c0,0.1,0,0.1,0,0.2
			c0.1,0.2,0.1,0.5,0,0.7c-0.1,0.3-0.2,0.6-0.4,0.8c-0.2,0.2-0.6,0.3-0.9,0.3c-0.5,0-0.7,0-1.1,0c-0.6,0-1.2,0-1.8,0.2
			c-0.3,0.1-0.6,0.2-1,0.3c-0.3,0.1-0.7,0.1-1,0.2c-0.6,0.1-1.2,0.3-1.8,0.5c-0.5,0.2-1,0.6-1.3,1c-0.4,0.5-0.7,1-0.9,1.6
			c-0.5,1.2-0.9,2.4-1.2,3.6c-0.2,0.6-0.4,1.3-0.6,1.9c-0.2,0.3-0.4,0.6-0.7,0.8c-0.4,0.2-0.8,0.2-1.2,0.1c-0.3-0.2-0.5-0.5-0.6-0.9
			c0-0.3-0.1-0.6-0.2-0.9s-0.3-0.6-0.6-0.5c-0.3,0.1-0.6,0.3-0.8,0.5c0.2-0.3,0.5-0.5,0.8-0.6c0.2,0,0.4,0,0.5,0.1s0.2,0.3,0.3,0.4
			c0.1,0.3,0.2,0.6,0.3,0.9c0.1,0.3,0.2,0.5,0.5,0.6c0.5,0.2,1-0.3,1.2-0.8c0.2-0.6,0.3-1.2,0.4-1.8c0.2-1.3,0.6-2.6,1-3.8
			c0.2-0.6,0.5-1.3,0.9-1.8c0.4-0.6,1-1.1,1.7-1.4c0.6-0.3,1.3-0.5,2-0.6c0.3-0.1,0.6-0.1,0.9-0.2s0.6-0.2,1-0.3
			c0.7-0.2,1.4-0.3,2.2-0.3c0.3,0,0.7,0,0.9,0c0.1,0,0.1,0,0,0l0,0c0,0,0-0.1-0.1-0.3c0-0.2,0-0.5,0-0.7c0.1-0.4,0.3-0.8,0.6-1.1
			c0.1-0.1,0.2-0.3,0.4-0.4l0.2-0.2c0.1-0.1,0.2-0.1,0.2-0.2c0.3-0.2,0.6-0.4,0.8-0.6c1.1-0.8,2.2-1.5,3.3-2.2l0.8-0.5
			c0.1-0.1,0.2-0.1,0.3-0.2c0.1,0,0.2-0.1,0.3-0.1c0.2-0.1,0.4-0.1,0.6-0.1c0.7-0.1,1.4-0.2,2.1-0.2s1.4,0,2.1,0.1
			c0.4,0,0.8,0.1,1.1,0.3c0.2,0.1,0.4,0.2,0.6,0.3c0.1,0.1,0.2,0.2,0.3,0.2c1.1,0.6,2.3,1,3.5,1.1l0.5,0.1c0.2,0,0.4,0.1,0.6,0.1
			c0.4,0.1,0.7,0.3,1,0.6c0.5,0.4,1,0.9,1.5,1.4c0.8,1,1.6,2.1,2.3,3.2c0.8,1.1,1.4,2.3,1.7,3.6c0.1,0.7,0.1,1.3,0,2l-0.2,1.9
			c0,0.7-0.3,1.3-0.7,1.8C335.1,274.6,334.4,274.8,333.7,274.8z"/>
		<path class="st41" d="M348.9,285.7c-0.6,0.9-1.5,1.6-2.5,2c-1,0.5-2.1,0.8-3,1.2c-0.5,0.2-0.9,0.5-1.5,0.7s-1.2,0.3-1.8,0.3
			c-1.1-0.1-2.3-0.3-3.4-0.7c-0.5-0.2-1-0.4-1.6-0.6s-1-0.4-1.5-0.6c-1-0.3-2-0.5-3.1-0.5c-1.2,0-2.4-0.2-3.5-0.7
			c-0.3-0.1-0.6-0.3-0.8-0.5c-0.2-0.2-0.4-0.4-0.6-0.6c-0.4-0.4-0.8-0.8-1.2-1.2c-1.4-1.7-2.6-3.5-3.7-5.3c-0.3-0.5-0.6-0.9-0.8-1.4
			c-0.3-0.5-0.5-1.1-0.6-1.7c-0.2-1.1-0.3-2.2-0.2-3.3c0-1,0-2.1-0.1-3.1c0-0.2-0.1-0.4-0.2-0.7c-0.1-0.3-0.1-0.6-0.1-0.9
			c0-0.5,0.1-1.1,0.1-1.6c0.1-1,0.2-2.1-0.5-2.9c-0.3-0.4-0.7-0.8-1.1-1.1c-0.4-0.3-1-0.5-1.5-0.5c0.6-0.1,1.1,0.1,1.6,0.3
			c0.5,0.3,0.9,0.6,1.3,1s0.7,0.9,0.8,1.5c0.1,0.5,0.1,1.1,0.1,1.6s0,1,0,1.5c0,0.2,0.1,0.5,0.1,0.7c0.1,0.3,0.2,0.5,0.3,0.8
			c0.2,1.1,0.3,2.1,0.3,3.2c0,1,0.2,2,0.4,3c0.1,0.5,0.3,0.9,0.5,1.3c0.3,0.4,0.5,0.9,0.8,1.3c1.1,1.8,2.3,3.5,3.7,5.1
			c0.3,0.4,0.7,0.8,1,1.1c0.2,0.2,0.4,0.3,0.5,0.5c0.2,0.1,0.4,0.3,0.6,0.4c0.9,0.4,1.9,0.6,2.9,0.6c1.2,0.1,2.3,0.3,3.4,0.6
			c0.6,0.2,1.1,0.4,1.5,0.7s1,0.4,1.5,0.6c1,0.4,2,0.7,3,0.8c0.5,0.1,1,0,1.4-0.1s1-0.4,1.5-0.6c1.1-0.3,2.1-0.6,3.2-0.9
			c0.5-0.2,1-0.4,1.5-0.6C348.2,286.6,348.6,286.2,348.9,285.7z"/>
		<path class="st41" d="M353.1,282.1c-0.2-0.2-0.3-0.4-0.3-0.6s0-0.5,0-0.7c0-0.5,0.1-1,0.2-1.4c0.2-0.9,0.4-1.8,0.5-2.7
			c0.2-0.9,0.4-1.9,0.6-2.8c0.3-0.9,0.5-1.8,0.7-2.6c0.1-0.4,0.1-0.8,0.1-1.2c0-0.5,0-1,0-1.4c0.1-0.8-0.2-1.5-0.9-1.9
			c-0.8-0.5-1.6-1-2.4-1.4c-0.9-0.5-1.6-1.1-2.2-1.9c1.5,1.2,3.4,1.4,5.2,2.5c0.5,0.3,0.9,0.7,1.2,1.2c0.2,0.5,0.4,1,0.4,1.6
			c0,0.5,0,1,0,1.4c0,0.5,0,1-0.1,1.5c-0.4,1.9-1.2,3.6-1.7,5.3c-0.3,0.9-0.6,1.8-0.9,2.7c-0.2,0.4-0.3,0.9-0.5,1.3
			c-0.1,0.2-0.1,0.4-0.2,0.7C352.9,281.7,353,281.9,353.1,282.1z"/>
		<path class="st41" d="M348.2,246.4c1.1,1,2.8,1.9,1.9,2.5s-1.6,1.6-0.8,2.3"/>
		<path class="st41" d="M337,277.5c2.1-1.1,3.6-3,2.7-5"/>
		<path class="st41" d="M327.4,266.5c0.4,1.5,0.9,3,1.4,4.4c0.3,0.8,0.4,1.5,0.5,2.3c0,0.7,0.1,1.5,0.3,2.2c0.1,0.7,0.5,1.3,1,1.7
			c0.5,0.4,1.2,0.7,1.8,0.7c1.5,0.1,2.9-0.2,4.2-1c0.2-0.1,0.5-0.1,0.7,0l0,0c2.1,1.3,4.3,2.6,6.3,4.1c1,0.7,2,1.5,3,2.4
			c0.2,0.2,0.5,0.5,0.7,0.7s0.4,0.4,0.6,0.6c0.4,0.3,0.9,0.5,1.3,0.5c1.1,0,2.4-0.3,3.6-0.4c0.7-0.1,1.3-0.1,2-0.1
			c0.7,0.1,1.3,0.3,1.9,0.5c1.2,0.6,2.2,1.4,3,2.4c0.8,0.9,1.5,2,2.1,3c-0.7-1-1.6-1.9-2.4-2.7c-0.9-0.8-1.9-1.5-3-1.9
			c-0.5-0.2-1.1-0.3-1.7-0.3s-1.2,0.1-1.8,0.2c-0.6,0.1-1.2,0.2-1.8,0.3c-0.7,0.2-1.3,0.2-2,0.3c-0.8,0-1.5-0.2-2.1-0.7
			c-0.3-0.2-0.5-0.4-0.8-0.7c-0.2-0.3-0.4-0.4-0.6-0.6c-0.9-0.8-1.8-1.6-2.8-2.2c-2-1.4-4.1-2.8-6.2-4.1h0.7c-1.5,0.8-3.3,1.2-5,1
			c-0.9-0.1-1.8-0.5-2.5-1.1c-0.6-0.6-1-1.4-1.2-2.3c-0.1-0.8-0.2-1.6-0.1-2.4c0-0.7-0.1-1.5-0.2-2.2
			C327.9,269.5,327.6,268,327.4,266.5z"/>
	</g>
</g>
</svg>
