<?xml version="1.0" encoding="utf-8"?>
<!-- Generator: Adobe Illustrator 23.1.0, SVG Export Plug-In . SVG Version: 6.00 Build 0)  -->
<svg version="1.1" id="图层_1" xmlns="http://www.w3.org/2000/svg" xmlns:xlink="http://www.w3.org/1999/xlink" x="0px" y="0px"
	 viewBox="0 0 383 328" style="enable-background:new 0 0 383 328;" xml:space="preserve">
<style type="text/css">
	.st0{fill:#F8B62D;}
	.st1{fill:#A478B3;}
	.st2{fill:none;stroke:#000000;stroke-width:5;stroke-miterlimit:10;}
	.st3{fill:#A879B3;}
	.st4{fill:none;stroke:#5170B4;stroke-width:7;stroke-miterlimit:10;}
	.st5{fill:#1E4DA0;}
</style>
<g>
	<circle class="st0" cx="120.7" cy="147.8" r="25"/>
	<path class="st1" d="M164.9,175.7c-14.6,22.5-54.9,18.8-55.5,15.4c-0.6-3.2,34.3-2.5,46.5-24.8c11.7-21.4-6.1-48.6-2.8-49.9
		c3.2-1.2,22.5,23.8,16.2,48.9C168.7,167.6,167.7,171.5,164.9,175.7z"/>
	<path class="st2" d="M187.5,177.5"/>
	
		<rect x="178.5" y="162.3" transform="matrix(0.4925 -0.8703 0.8703 0.4925 -65.925 254.203)" class="st3" width="13" height="42.7"/>
	<circle class="st4" cx="151" cy="162.3" r="111.8"/>
	<path class="st5" d="M250.1,236.9l12.2-18.3c0.5-0.7,1.5-0.9,2.2-0.4l0,0l98.4,65.6c0.7,0.5,0.9,1.5,0.4,2.2l0,0l-12.2,18.3
		c-0.5,0.7-1.5,0.9-2.2,0.4l0,0l-98.3-65.5C249.8,238.7,249.6,237.7,250.1,236.9L250.1,236.9z"/>
</g>
</svg>
