<?xml version="1.0" encoding="utf-8"?>
<!-- Generator: Adobe Illustrator 23.1.0, SVG Export Plug-In . SVG Version: 6.00 Build 0)  -->
<svg version="1.1" id="图层_1" xmlns="http://www.w3.org/2000/svg" xmlns:xlink="http://www.w3.org/1999/xlink" x="0px" y="0px"
	 viewBox="0 0 595.3 484" style="enable-background:new 0 0 595.3 484;" xml:space="preserve">
<style type="text/css">
	.st0{fill:none;stroke:#4F6BA9;stroke-width:7;stroke-miterlimit:10;}
	.st1{fill:#1D2088;}
	.st2{fill:none;}
	.st3{font-family:'ArialMT';}
	.st4{font-size:60px;}
</style>
<circle class="st0" cx="232.6" cy="218.8" r="192.2"/>
<path class="st1" d="M383.8,341.8l20.8-31.4c0.8-1.2,2.5-1.6,3.8-0.8l0,0L577,421.5c1.2,0.8,1.6,2.5,0.8,3.8l0,0L557,456.6
	c-0.8,1.2-2.5,1.6-3.8,0.8l0,0L384.5,345.6C383.3,344.8,382.9,343.1,383.8,341.8C383.7,341.9,383.8,341.8,383.8,341.8z"/>
<rect x="688" y="116" class="st2" width="17" height="1"/>
<text transform="matrix(1 0 0 1 105.9438 243.5459)" class="st1 st3 st4">Pathways</text>
</svg>
